<svg xmlns="http://www.w3.org/2000/svg" xmlns:xlink="http://www.w3.org/1999/xlink" width="414" height="194" viewBox="0 0 414 194">
  <defs>
    <clipPath id="clip-path">
      <rect id="Rectangle_164" data-name="Rectangle 164" width="414" height="93" transform="translate(0 5343)" fill="#fff"/>
    </clipPath>
    <clipPath id="clip-path-2">
      <rect id="Rectangle_165" data-name="Rectangle 165" width="414" height="101" transform="translate(0 5242)" fill="#fff"/>
    </clipPath>
  </defs>
  <g id="DNA" transform="translate(0 -5242)">
    <g id="Mask_Group_36" data-name="Mask Group 36" clip-path="url(#clip-path)">
      <path id="Path_720" data-name="Path 720" d="M328.552,134.72a125.976,125.976,0,0,0,35.9-5.24l.256-.07c.185-.045.371-.1.552-.161l.205-.067A125.317,125.317,0,0,0,393.965,116.4a6.364,6.364,0,0,0,2.125-8.75h0a6.365,6.365,0,0,0-8.748-2.124,112.835,112.835,0,0,1-19,9.247l-3.372,1.265L280.982,32.05l1.266-3.372a112.678,112.678,0,0,1,9.246-19,6.368,6.368,0,0,0-10.879-6.622,125.282,125.282,0,0,0-12.8,28.567l-.064.195c-.037.108-.073.213-.1.322l-.059.211a125.755,125.755,0,0,0-1.333,67.359l2.359,9.172-9.171-2.365A125.56,125.56,0,0,0,106.519,259.435l2.363,9.171-9.171-2.359a125.8,125.8,0,0,0-67.374,1.337l-.163.046c-.13.035-.258.08-.387.121l-.137.044A125.418,125.418,0,0,0,3.059,280.611a6.366,6.366,0,1,0,6.62,10.875,112.877,112.877,0,0,1,19.008-9.247l3.372-1.265L116.04,364.96l-1.263,3.37a112.4,112.4,0,0,1-9.247,19.005,6.368,6.368,0,0,0,10.877,6.626,125.315,125.315,0,0,0,12.8-28.57l.062-.19c.042-.124.082-.246.115-.372l.047-.164a125.794,125.794,0,0,0,1.334-67.365l-2.361-9.175,9.172,2.366A125.553,125.553,0,0,0,290.505,137.581l-2.363-9.169,9.17,2.357A125.522,125.522,0,0,0,328.552,134.72ZM121.463,339.436l-1.139,11.8L45.783,276.689l11.8-1.137a112.37,112.37,0,0,1,42.656,4.039l13.278,3.906,3.906,13.277A112.289,112.289,0,0,1,121.463,339.436ZM179.737,281.2q-5.477.53-10.934.528a112.239,112.239,0,0,1-31.745-4.584h0l-13.277-3.906-3.907-13.281a112.339,112.339,0,0,1-4.06-42.68l1.139-11.8,74.583,74.584Zm59.55-24.131A112.539,112.539,0,0,1,208.624,274.5l-3.374,1.268-84.006-84,1.27-3.374a112.653,112.653,0,0,1,17.429-30.664l3.9-4.886L244.173,253.17Zm35.221-48.456a112.482,112.482,0,0,1-17.431,30.666l-3.9,4.884L152.851,143.84l4.886-3.9A112.549,112.549,0,0,1,188.4,122.509l3.373-1.269,84,84Zm6.7-28.884-1.138,11.8-74.586-74.59,11.8-1.136a112.391,112.391,0,0,1,42.679,4.06l13.281,3.906,3.906,13.281A112.328,112.328,0,0,1,281.208,179.732Zm2.293-66.219-3.9-13.279a112.306,112.306,0,0,1-4.041-42.659l1.137-11.8,74.549,74.545-11.8,1.139q-5.5.531-10.982.531a111.915,111.915,0,0,1-31.68-4.57Z" transform="translate(207.193 5062.138) rotate(45)" fill="#c2eeff"/>
    </g>
    <g id="Mask_Group_37" data-name="Mask Group 37" clip-path="url(#clip-path-2)">
      <path id="Path_721" data-name="Path 721" d="M328.552,134.72a125.976,125.976,0,0,0,35.9-5.24l.256-.07c.185-.045.371-.1.552-.161l.205-.067A125.317,125.317,0,0,0,393.965,116.4a6.364,6.364,0,0,0,2.125-8.75h0a6.365,6.365,0,0,0-8.748-2.124,112.835,112.835,0,0,1-19,9.247l-3.372,1.265L280.982,32.05l1.266-3.372a112.678,112.678,0,0,1,9.246-19,6.368,6.368,0,0,0-10.879-6.622,125.282,125.282,0,0,0-12.8,28.567l-.064.195c-.037.108-.073.213-.1.322l-.059.211a125.755,125.755,0,0,0-1.333,67.359l2.359,9.172-9.171-2.365A125.56,125.56,0,0,0,106.519,259.435l2.363,9.171-9.171-2.359a125.8,125.8,0,0,0-67.374,1.337l-.163.046c-.13.035-.258.08-.387.121l-.137.044A125.418,125.418,0,0,0,3.059,280.611a6.366,6.366,0,1,0,6.62,10.875,112.877,112.877,0,0,1,19.008-9.247l3.372-1.265L116.04,364.96l-1.263,3.37a112.4,112.4,0,0,1-9.247,19.005,6.368,6.368,0,0,0,10.877,6.626,125.315,125.315,0,0,0,12.8-28.57l.062-.19c.042-.124.082-.246.115-.372l.047-.164a125.794,125.794,0,0,0,1.334-67.365l-2.361-9.175,9.172,2.366A125.553,125.553,0,0,0,290.505,137.581l-2.363-9.169,9.17,2.357A125.522,125.522,0,0,0,328.552,134.72ZM121.463,339.436l-1.139,11.8L45.783,276.689l11.8-1.137a112.37,112.37,0,0,1,42.656,4.039l13.278,3.906,3.906,13.277A112.289,112.289,0,0,1,121.463,339.436ZM179.737,281.2q-5.477.53-10.934.528a112.239,112.239,0,0,1-31.745-4.584h0l-13.277-3.906-3.907-13.281a112.339,112.339,0,0,1-4.06-42.68l1.139-11.8,74.583,74.584Zm59.55-24.131A112.539,112.539,0,0,1,208.624,274.5l-3.374,1.268-84.006-84,1.27-3.374a112.653,112.653,0,0,1,17.429-30.664l3.9-4.886L244.173,253.17Zm35.221-48.456a112.482,112.482,0,0,1-17.431,30.666l-3.9,4.884L152.851,143.84l4.886-3.9A112.549,112.549,0,0,1,188.4,122.509l3.373-1.269,84,84Zm6.7-28.884-1.138,11.8-74.586-74.59,11.8-1.136a112.391,112.391,0,0,1,42.679,4.06l13.281,3.906,3.906,13.281A112.328,112.328,0,0,1,281.208,179.732Zm2.293-66.219-3.9-13.279a112.306,112.306,0,0,1-4.041-42.659l1.137-11.8,74.549,74.545-11.8,1.139q-5.5.531-10.982.531a111.915,111.915,0,0,1-31.68-4.57Z" transform="translate(207.193 5062.138) rotate(45)" fill="#ffdeb9"/>
    </g>
  </g>
</svg>
