<svg xmlns="http://www.w3.org/2000/svg" xmlns:xlink="http://www.w3.org/1999/xlink" width="519" height="417" viewBox="0 0 519 417">
  <defs>
    <clipPath id="clip-path">
      <rect id="Rectangle_139" data-name="Rectangle 139" width="519" height="417" transform="translate(1.706 -6.326)" fill="#ffeedb"/>
    </clipPath>
  </defs>
  <g id="Mask_Group_32" data-name="Mask Group 32" transform="translate(-1.706 6.326)" clip-path="url(#clip-path)">
    <path id="Path_675" data-name="Path 675" d="M700.767,287.343a268.694,268.694,0,0,0,76.58-11.175l.547-.15c.394-.1.791-.208,1.177-.342l.438-.143a267.289,267.289,0,0,0,60.776-27.265,13.574,13.574,0,0,0,4.532-18.662l0,0a13.575,13.575,0,0,0-18.659-4.531A240.667,240.667,0,0,1,785.624,244.8l-7.192,2.7L599.305,68.358l2.7-7.192a240.338,240.338,0,0,1,19.72-40.531,13.582,13.582,0,0,0-23.2-14.125,267.212,267.212,0,0,0-27.306,60.931l-.136.416c-.078.23-.157.455-.216.687l-.126.45A268.222,268.222,0,0,0,567.9,212.662l5.031,19.563-19.56-5.043A267.806,267.806,0,0,0,227.194,553.348l5.04,19.56-19.56-5.031a268.307,268.307,0,0,0-143.7,2.851l-.348.1c-.278.075-.55.17-.825.259l-.293.094A267.5,267.5,0,0,0,6.524,598.514a13.578,13.578,0,1,0,14.12,23.2,240.754,240.754,0,0,1,40.541-19.723l7.192-2.7L247.5,778.421l-2.694,7.188a239.736,239.736,0,0,1-19.723,40.536,13.582,13.582,0,0,0,23.2,14.132,267.284,267.284,0,0,0,27.309-60.938l.133-.406c.09-.264.174-.525.245-.794l.1-.351a268.306,268.306,0,0,0,2.845-143.682l-5.035-19.568,19.563,5.047A267.79,267.79,0,0,0,619.617,293.446l-5.04-19.557,19.558,5.028A267.726,267.726,0,0,0,700.767,287.343Zm-441.7,436.639-2.43,25.162-158.988-159,25.171-2.424a239.674,239.674,0,0,1,90.981,8.615l28.321,8.332,8.332,28.319A239.5,239.5,0,0,1,259.067,723.982ZM383.36,599.776q-11.682,1.13-23.322,1.126a239.394,239.394,0,0,1-67.708-9.778l0,0-28.319-8.332-8.333-28.326a239.606,239.606,0,0,1-8.659-91.032l2.43-25.164,159.078,159.08Zm127.014-51.469a240.033,240.033,0,0,1-65.4,37.178l-7.2,2.706L258.6,409.019l2.709-7.2a240.277,240.277,0,0,1,37.174-65.4L306.807,326,520.794,539.985ZM585.5,444.956a239.913,239.913,0,0,1-37.178,65.408l-8.323,10.417L326.016,306.8l10.421-8.323a240.056,240.056,0,0,1,65.4-37.174l7.2-2.707L588.2,437.761Zm14.292-61.607-2.428,25.166L438.275,249.421,463.445,247a239.718,239.718,0,0,1,91.031,8.661L582.8,263.99l8.332,28.328A239.584,239.584,0,0,1,599.787,383.349Zm4.892-141.237-8.325-28.323a239.536,239.536,0,0,1-8.62-90.988l2.424-25.169,159,159L724,259.058q-11.739,1.132-23.422,1.133a238.7,238.7,0,0,1-67.57-9.748Z" transform="translate(1.896 -395.23) rotate(45)" fill="#c2eeff"/>
  </g>
</svg>
