<svg xmlns="http://www.w3.org/2000/svg" xmlns:xlink="http://www.w3.org/1999/xlink" width="319" height="491" viewBox="0 0 319 491">
  <defs>
    <clipPath id="clip-path">
      <rect id="Rectangle_134" data-name="Rectangle 134" width="319" height="491" transform="translate(1601 2509)" fill="#fff" stroke="#707070" stroke-width="1"/>
    </clipPath>
  </defs>
  <g id="Mask_Group_30" data-name="Mask Group 30" transform="translate(-1601 -2509)" clip-path="url(#clip-path)">
    <path id="Path_672" data-name="Path 672" d="M516.519,397.659c2.459-67.219-21.747-135.172-73.069-186.452-117.3-117.326-321.921-94.25-404.881,69.2-34.083,67.176-34.323,148.4-.48,215.688C95.147,609.56,210.3,655.541,314.862,634.8v-.056a58.048,58.048,0,1,0-23.146-113.766c-30.253,6.02-64.138,1.951-98.645-17.917a118.45,118.45,0,0,1-49.527-55.222c-14.823-34.479-15.671-68.448-6.712-98.151a58.955,58.955,0,1,0,76.079-84.953c28.049-12,60.9-14.921,94.915-4.634,22.623,6.825,42.448,21.676,57.313,40.046,27.936,34.507,36.739,65.678,35.425,93.954a10.091,10.091,0,0,0,.1,1.229c-.028.82-.24,1.6-.24,2.43a57.909,57.909,0,0,0,115.672,4.253c.071-.678.4-.961.438-1.7.028-.819-.042-1.653-.014-2.487l.014-.071Z" transform="translate(1621.614 2411.76)" fill="none" stroke="#37c7fc" stroke-width="1" fill-rule="evenodd"/>
  </g>
</svg>
