<svg xmlns="http://www.w3.org/2000/svg" xmlns:xlink="http://www.w3.org/1999/xlink" width="1401" height="885" viewBox="0 0 1401 885">
  <defs>
    <clipPath id="clip-path">
      <rect id="Rectangle_112" data-name="Rectangle 112" width="1401" height="885" transform="translate(0 114)" fill="#004e7e"/>
    </clipPath>
  </defs>
  <g id="Mask_Group_28" data-name="Mask Group 28" transform="translate(0 -114)" clip-path="url(#clip-path)">
    <path id="Path_663" data-name="Path 663" d="M1013.683,654.291c4.886-133.57-43.213-268.6-145.195-370.5C635.407,50.655,228.8,96.508,63.949,421.294c-67.726,133.485-68.2,294.882-.955,428.592,113.382,225.473,342.195,316.84,549.977,275.621v-.111a115.347,115.347,0,1,0-45.993-226.063c-60.116,11.962-127.449,3.876-196.017-35.6C327.636,838.768,292.285,799.935,272.546,754c-29.454-68.512-31.139-136.013-13.337-195.035a117.288,117.288,0,0,0,214.914-65c0-45.431-26.029-84.319-63.739-103.807,55.736-23.838,121.019-29.65,188.6-9.208,44.954,13.562,84.348,43.072,113.887,79.575,55.511,68.568,73,130.509,70.393,186.7a20.054,20.054,0,0,0,.2,2.442c-.056,1.629-.477,3.174-.477,4.829A115.363,115.363,0,0,0,898.363,769.834c60.791,0,110.069-47.2,114.477-106.9.14-1.347.786-1.909.871-3.369.056-1.628-.084-3.285-.028-4.941l.028-.141Z" transform="translate(236.948 59.02)" fill="#005990" fill-rule="evenodd"/>
  </g>
</svg>
