<?xml version="1.0" encoding="utf-8"?>
<!-- Generator: Adobe Illustrator 22.1.0, SVG Export Plug-In . SVG Version: 6.00 Build 0)  -->
<svg version="1.1" id="Layer_1" xmlns="http://www.w3.org/2000/svg" xmlns:xlink="http://www.w3.org/1999/xlink" x="0px" y="0px"
	 viewBox="0 0 798 787" style="enable-background:new 0 0 798 787;" xml:space="preserve">
<style type="text/css">
	.st0{fill:#B9EBFF;}
</style>
<g id="Mask_Group_33" transform="translate(0 -156)">
	<path id="Path_663" class="st0" d="M767.9,562.7c3.6-98.5-31.9-198.1-107.1-273.2C488.9,117.6,189.1,151.4,67.5,390.9
		c-49.9,98.4-50.3,217.5-0.7,316.1c83.6,166.3,252.3,233.6,405.6,203.2v-0.1c46.1-9.1,76.1-53.8,67-99.9
		c-9.1-46.1-53.8-76.1-99.9-67c-0.3,0.1-0.6,0.1-1,0.2c-44.3,8.8-94,2.9-144.5-26.3c-31.9-18.4-58-47-72.6-80.9
		c-21.7-50.5-23-100.3-9.8-143.8c26.5,39.8,80.2,50.5,119.9,24.1c24.1-16,38.6-43.1,38.6-72c0-33.5-19.2-62.2-47-76.5
		c41.1-17.6,89.2-21.9,139.1-6.8c33.1,10,62.2,31.8,84,58.7C587,470.4,599.9,516,598,557.5c0,0.6,0.1,1.2,0.1,1.8
		c0,1.2-0.4,2.3-0.4,3.6c0,47,38.1,85.1,85.1,85.1c44.8,0,81.2-34.8,84.4-78.8c0.1-1,0.6-1.4,0.6-2.5c0-1.2-0.1-2.4,0-3.6l0-0.1
		L767.9,562.7z"/>
</g>
</svg>
