<svg xmlns="http://www.w3.org/2000/svg" width="481.432" height="481.432" viewBox="0 0 481.432 481.432">
  <g id="Illustration" transform="translate(-396.005 -76.559)">
    <rect id="Rectangle_110" data-name="Rectangle 110" width="337.424" height="337.424" rx="32.215" transform="translate(636.721 78.681) rotate(45)" fill="none" stroke="#f9d2f9" stroke-miterlimit="10" stroke-width="3"/>
    <rect id="Rectangle_111" data-name="Rectangle 111" width="284.737" height="284.737" rx="27.184" transform="translate(618.094 134.564) rotate(45)" fill="#f9d2f9"/>
    <g id="Ilustrim" transform="translate(466.774 116.097)">
      <path id="Path_591" data-name="Path 591" d="M434.746,171.553c4.071-1.179,6.315-6,6.031-9.954-.268-3.756-2.908-7.484-6.778-8.111-4.2-.682-8.873,2.936-9.433,7.137a11.1,11.1,0,0,0,3.113,8.655,4.925,4.925,0,0,0,.718.744A6.716,6.716,0,0,0,434.746,171.553Z" transform="translate(-424.499 3.683)" fill="#684cb5"/>
      <path id="Path_592" data-name="Path 592" d="M441.863,157.24a5.109,5.109,0,0,0,1.117.679,5.5,5.5,0,0,0,6.346-1.567c3.113-3.6,2.1-10.414-3.472-10.552-5.315-.13-8.522,6.487-5.133,10.5A4.225,4.225,0,0,0,441.863,157.24Z" transform="translate(-400.732 -8.511)" fill="#684cb5"/>
      <path id="Path_593" data-name="Path 593" d="M456.09,145.116a9.423,9.423,0,0,0,2.775,3.288c2.559,1.689,5.865.2,7.418-2.043,2.9-4.17-.76-10.867-5.091-12.208-2.665-.825-5.982,1.731-6.643,4.271C453.9,140.9,454.89,143.026,456.09,145.116Z" transform="translate(-376.658 -27.432)" fill="#684cb5"/>
      <path id="Path_594" data-name="Path 594" d="M462.854,162.1c4.193-2.184,3.639-8.582-1.132-9.6-4.118-.877-8.993,2.975-6.409,7.444C457.058,162.962,461.342,162.886,462.854,162.1Z" transform="translate(-376.262 2.031)" fill="#684cb5"/>
      <path id="Path_595" data-name="Path 595" d="M511.73,106.71a6.924,6.924,0,0,0-5.786,3.858c-1.036,2.462-.51,5.607,1.937,6.965a6.044,6.044,0,0,0,6.536-.3C518.269,114.134,517.256,106.874,511.73,106.71Z" transform="translate(-294.753 -71.17)" fill="#684cb5"/>
      <path id="Path_596" data-name="Path 596" d="M481.927,134.048c3.3-3.782.825-11.138-4.579-10.971-4.516.138-7.075,5.565-4.823,9.3a18.653,18.653,0,0,0,1.812,2.442C476.5,136.8,480.092,136.151,481.927,134.048Z" transform="translate(-348.849 -44.937)" fill="#684cb5"/>
      <path id="Path_597" data-name="Path 597" d="M437.071,153.014a8.548,8.548,0,0,0,2.142-1.916c3.116-4.282-.515-11.4-6.049-10.256-2.767.57-4.683,3.618-4.7,6.265a8.121,8.121,0,0,0,4.04,6.609C434.14,154.594,435.709,153.959,437.071,153.014Z" transform="translate(-418.138 -16.651)" fill="#684cb5"/>
      <path id="Path_598" data-name="Path 598" d="M438.135,139.337a4.509,4.509,0,0,0,3.582-3.972A5.13,5.13,0,0,0,440,131.458a4.557,4.557,0,0,0-4.084-1.4,4.317,4.317,0,0,0-3.035,3.566,6.043,6.043,0,0,0-.078,1.028v.089a4.517,4.517,0,0,0,.63,2.293,4.22,4.22,0,0,0,.292.474A4.368,4.368,0,0,0,438.135,139.337Z" transform="translate(-411.187 -33.89)" fill="#684cb5"/>
      <path id="Path_599" data-name="Path 599" d="M456.271,135.529c.919-2.486-.771-5.469-2.725-6.9a6.282,6.282,0,0,0-7.273-.226c-2.6,1.931-2.673,5.076-1.286,7.718a7.54,7.54,0,0,0,5.315,3.811A6.3,6.3,0,0,0,456.271,135.529Z" transform="translate(-393.096 -38.08)" fill="#684cb5"/>
      <path id="Path_600" data-name="Path 600" d="M452.286,114.9c-1.33-.932-3.407-.56-4.74.117a4.273,4.273,0,0,0-2.223,4.644,5.244,5.244,0,0,0,4.5,4.381C457.255,124.9,454.968,116.779,452.286,114.9Z" transform="translate(-391.235 -58.934)" fill="#684cb5"/>
      <path id="Path_601" data-name="Path 601" d="M470.278,193c-3.079-3.1-8.933-.955-9.464,3.238a8.97,8.97,0,0,0,1.075,5.393,6.285,6.285,0,0,0,1.752,2.288,5.537,5.537,0,0,0,5.469.843C473.417,202.565,473.409,196.149,470.278,193Z" transform="translate(-366.389 64.8)" fill="#684cb5"/>
      <path id="Path_602" data-name="Path 602" d="M438.934,167.09a3.2,3.2,0,0,0,3.524-2.913,3.93,3.93,0,0,0-2.756-3.863,3.272,3.272,0,0,0-3.894,2.926C435.678,165.247,436.81,167.129,438.934,167.09Z" transform="translate(-406.388 14.632)" fill="#684cb5"/>
      <path id="Path_603" data-name="Path 603" d="M460.6,115.776c-2.426.5-3.884,2.892-2.132,4.956a5.105,5.105,0,0,0,4.363,1.885c2.2-.06,3.694-1.775,2.793-3.985A4.391,4.391,0,0,0,460.6,115.776Z" transform="translate(-371.291 -56.788)" fill="#684cb5"/>
      <path id="Path_604" data-name="Path 604" d="M515.106,93.151c-2.428.5-3.884,2.892-2.132,4.956a5.105,5.105,0,0,0,4.362,1.885c2.2-.06,3.694-1.775,2.793-3.985A4.391,4.391,0,0,0,515.106,93.151Z" transform="translate(-283.914 -93.055)" fill="#684cb5"/>
      <path id="Path_605" data-name="Path 605" d="M468.288,113.152c1.624-3.418.325-7.687-3.264-9.019a5.721,5.721,0,0,0-5.138.825,5.141,5.141,0,0,0-1.885,3.98,7.727,7.727,0,0,0,.492,3.332,7.947,7.947,0,0,0,2.939,4.3C464.1,118.223,467.21,115.419,468.288,113.152Z" transform="translate(-370.836 -75.764)" fill="#684cb5"/>
      <path id="Path_606" data-name="Path 606" d="M468.809,116.9c1.484,2.051,4.391,1.835,6.094.177,1.734-1.689,1.494-5.349-.567-6.658-2.233-1.413-5.117-.138-6.3,2.038C467.3,113.794,467.878,115.611,468.809,116.9Z" transform="translate(-355.246 -66.182)" fill="#684cb5"/>
      <path id="Path_607" data-name="Path 607" d="M480.345,103.263a3.635,3.635,0,0,0,1.507-3.34,3.448,3.448,0,0,0-6.135-2.2,3.735,3.735,0,0,0,1.989,6.268A3.36,3.36,0,0,0,480.345,103.263Z" transform="translate(-344.091 -87.636)" fill="#684cb5"/>
      <path id="Path_608" data-name="Path 608" d="M505.484,135.022a3.681,3.681,0,0,0,3.433-2.564,4.108,4.108,0,0,0-6.028-4.808,3.985,3.985,0,0,0-2,4.175,4.241,4.241,0,0,0,3.733,3.157A4.9,4.9,0,0,0,505.484,135.022Z" transform="translate(-302.157 -38.622)" fill="#684cb5"/>
      <path id="Path_609" data-name="Path 609" d="M489.982,104c.052.029.1.065.153.091,1.887.906,3.7-.515,3.967-2.434a7.848,7.848,0,0,0-1.484-5.271,7.7,7.7,0,0,0-1.973-2.049c-.932-.669-2.067-.279-3,.086-4.644,1.812-1.364,7.46,1.51,9.238A3.02,3.02,0,0,0,489.982,104Z" transform="translate(-327 -91.582)" fill="#684cb5"/>
      <path id="Path_610" data-name="Path 610" d="M497.636,112.585a2.671,2.671,0,0,0,2.848-.026c1.76-1.3,1.3-3.847.846-5.693-.64-2.606-2.554-3.868-5.11-4.068-3.272-.255-4.789,2.819-4.245,5.406a3.51,3.51,0,0,0,2.691,3.6A10.35,10.35,0,0,1,497.636,112.585Z" transform="translate(-316.512 -77.462)" fill="#684cb5"/>
      <path id="Path_611" data-name="Path 611" d="M463.75,143.466a3.909,3.909,0,0,0,3.176,3.082,2.227,2.227,0,0,0,1.3-.177,2.557,2.557,0,0,0,1.424-.9,3.76,3.76,0,0,0,.242-4.141,3.149,3.149,0,0,0-3.99-1.6A3.263,3.263,0,0,0,463.75,143.466Z" transform="translate(-361.723 -18.603)" fill="#684cb5"/>
      <path id="Path_612" data-name="Path 612" d="M494.724,119.935a3.909,3.909,0,0,0-4.326,3.09,6.654,6.654,0,0,0,2.155,5.542,3.838,3.838,0,0,0,2.038.958,3.585,3.585,0,0,0,2.853-.271c1.843-1,1.767-3.519,1.354-5.253C498.35,122.106,496.788,120.1,494.724,119.935Z" transform="translate(-318.957 -49.99)" fill="#684cb5"/>
      <path id="Path_613" data-name="Path 613" d="M497.414,119.817c1.429-4.537-3.014-8.132-7.015-8.483-4.779-.422-8.2,2.759-7.4,7.5a8.276,8.276,0,0,0,1.754,3.6,9.861,9.861,0,0,0,2.548,2.5C491.154,127.3,496.266,123.459,497.414,119.817Z" transform="translate(-330.911 -63.815)" fill="#684cb5"/>
      <path id="Path_614" data-name="Path 614" d="M466.623,133.793c1.734-.635,2.777-2.824,3.584-4.365.846-1.616.778-4.011-.9-5.086a4.833,4.833,0,0,0-5.084.026c-1.567,1.041-2.158,3.381-1.864,5.159l0,.013C462.463,132.093,463.869,134.8,466.623,133.793Z" transform="translate(-363.929 -44.041)" fill="#684cb5"/>
      <path id="Path_615" data-name="Path 615" d="M475.485,172.154a6.434,6.434,0,0,0,9.212-2.931c2.642-5.877-2.546-15.186-9.464-13.689-3.816.823-6.788,4.321-6.156,8.22a11.038,11.038,0,0,0,4.951,7.366A11.3,11.3,0,0,0,475.485,172.154Z" transform="translate(-353.18 6.838)" fill="#684cb5"/>
      <path id="Path_616" data-name="Path 616" d="M502.141,184.228c2.866-2.049,3.954-6.065,3.517-9.425-.476-3.665-3.267-5.716-6.783-6.052-1.741-.167-3.759.534-5.448.9a9.866,9.866,0,0,0-5.081,2.671c-2.189,2.285-3.181,7.067-.518,9.425,1.515,1.343,3.176,1.661,4.743,2.244C495.805,185.2,499.132,186.383,502.141,184.228Z" transform="translate(-325.557 28.241)" fill="#684cb5"/>
      <path id="Path_617" data-name="Path 617" d="M469.74,170.031c-.128-7.988-13.038-7.832-13.983-.341-.346,2.723,1.671,5.419,4.05,6.562a5.277,5.277,0,0,0,1.609.456,6.75,6.75,0,0,0,2.793.159A6.831,6.831,0,0,0,469.74,170.031Z" transform="translate(-374.457 20.755)" fill="#684cb5"/>
      <path id="Path_618" data-name="Path 618" d="M448.231,170.308c.112.034.221.065.333.091a3.746,3.746,0,0,0,3.553-.893c2.064-2,1.6-6.065-.651-7.783a4.017,4.017,0,0,0-4.36-.583c-1.481.638-2.085,2.626-2.121,4.076a6.1,6.1,0,0,0,1.629,4.115,3.992,3.992,0,0,0,1.463.919C448.129,170.271,448.179,170.29,448.231,170.308Z" transform="translate(-391.664 15.452)" fill="#684cb5"/>
      <path id="Path_619" data-name="Path 619" d="M451.953,186.726c1.676.12,3.269.515,4.675-.747,1.512-1.359,1.5-3.282.776-5.034-.6-1.45-2.369-2.356-3.715-2.9a6.166,6.166,0,0,0-4.594.161c-1.322.567-3.144,2.16-2.949,3.79a5.363,5.363,0,0,0,5.281,4.678C451.6,186.689,451.773,186.713,451.953,186.726Z" transform="translate(-389.824 42.581)" fill="#684cb5"/>
      <path id="Path_620" data-name="Path 620" d="M444.055,179.3c2.606-3.636-1.866-8.733-5.729-8.538-4.264.211-4.649,5.823-2.671,8.358a6.368,6.368,0,0,0,3.105,2.33A5.112,5.112,0,0,0,444.055,179.3Z" transform="translate(-408.458 31.504)" fill="#684cb5"/>
      <path id="Path_621" data-name="Path 621" d="M451.858,189.123a4.986,4.986,0,0,0-4.149,3.826,9.616,9.616,0,0,0,.789,6.224,6.769,6.769,0,0,0,2.192,2.962c2.327,1.6,5.024-.219,5.929-2.47C458,196.221,456.824,188.717,451.858,189.123Z" transform="translate(-387.677 60.912)" fill="#684cb5"/>
      <path id="Path_622" data-name="Path 622" d="M468.84,186.033c.047-.044.075-.1.117-.141.023-.026.052-.044.076-.068a4.487,4.487,0,0,0,.713-4.982,3.728,3.728,0,0,0-4.435-2.33,4.32,4.32,0,0,0-3.412,3.9,4.853,4.853,0,0,0,1.726,3.847A3.809,3.809,0,0,0,468.84,186.033Z" transform="translate(-364.551 43.737)" fill="#684cb5"/>
      <path id="Path_623" data-name="Path 623" d="M480.019,194.02c-1.629,2.158,1.049,5.146,2.429,6.572a7.08,7.08,0,0,0,2.8,1.549,4.63,4.63,0,0,0,4.022-.354c2.28-1.333,2.895-3.878,2.538-6.349a5.534,5.534,0,0,0-5.367-4.508A7.79,7.79,0,0,0,480.019,194.02Z" transform="translate(-336.32 63.82)" fill="#684cb5"/>
      <path id="Path_624" data-name="Path 624" d="M477.967,182.361a6.4,6.4,0,0,0,1.262,1.26c3.032,2.551,6.8-.154,8.082-2.9a9.935,9.935,0,0,0-1.538-10.586c-2.616-3.072-7.653-.383-9.418,2.163C474.374,175.151,476.243,179.886,477.967,182.361Z" transform="translate(-342.741 28.296)" fill="#684cb5"/>
      <path id="Path_625" data-name="Path 625" d="M494.276,132.476c-3.025-.279-6.1.443-7.879,3.059-1.869,2.749,1.333,4.985,3.371,6.117a11.67,11.67,0,0,0,5.32,1.3,6.463,6.463,0,0,0,2.736-.034c2.856-.7,5.552-3.485,3.876-6.565C500.289,133.76,497.069,132.729,494.276,132.476Z" transform="translate(-326.185 -29.955)" fill="#684cb5"/>
      <path id="Path_626" data-name="Path 626" d="M483.532,152.84a3.794,3.794,0,0,0,3.652-1.124,3.635,3.635,0,0,0,1.468-2.788,4.387,4.387,0,0,0-2.187-3.858,4.3,4.3,0,0,0-4.857.593C478.99,147.9,480.335,152.082,483.532,152.84Z" transform="translate(-335.177 -10.49)" fill="#684cb5"/>
      <path id="Path_627" data-name="Path 627" d="M493.912,150.454c.919,2.041,2.731,3.579,5.092,2.973a10.445,10.445,0,0,0,5.208-3.584c1.752-2.293.961-4.776-.687-6.88-1.468-1.877-4.633-2.041-6.627-1.08a6.252,6.252,0,0,0-2.986,8.572Z" transform="translate(-314.366 -15.71)" fill="#684cb5"/>
      <path id="Path_628" data-name="Path 628" d="M488.718,168.531a4.061,4.061,0,0,0,2.348,1,8.06,8.06,0,0,0,4.815-.45c2.324-.911,4.56-3.027,3.342-5.727-1-2.22-3.831-3.777-6.119-4.227-2.535-.5-4.8-.284-6.122,2.226A5.87,5.87,0,0,0,488.718,168.531Z" transform="translate(-325.307 12.502)" fill="#684cb5"/>
      <path id="Path_629" data-name="Path 629" d="M503.953,159.951a3.723,3.723,0,0,0,.726.307,3.412,3.412,0,0,0,1.5.161c.96-.109,1.895-.32,2.863-.367a4.333,4.333,0,0,0,2.986-.979c1.713-1.65.646-3.639-.57-5.175a7.663,7.663,0,0,0-4.782-2.452,4.326,4.326,0,0,0-4.68,3.228A4.655,4.655,0,0,0,503.953,159.951Z" transform="translate(-300.606 0.482)" fill="#684cb5"/>
      <path id="Path_630" data-name="Path 630" d="M480.07,210.807a6.388,6.388,0,0,0,3.189-5.5,5.675,5.675,0,0,0-4.43-5.612c-2.668-.357-5.654.859-6.578,3.556a6.473,6.473,0,0,0,1.377,6.14,4.881,4.881,0,0,0,3.277,1.668A4.45,4.45,0,0,0,480.07,210.807Z" transform="translate(-348.431 77.782)" fill="#684cb5"/>
      <path id="Path_631" data-name="Path 631" d="M493.223,199.807a7.252,7.252,0,0,0,.258,4.961c.989,3.03,5.128,5.622,8.061,4.29,2.166-.981,2.137-3.415,1.58-5.635-.271-1.088.476-1.767-.552-3.53a5.444,5.444,0,0,0-3.035-2.613C497.149,196.579,494.236,197.35,493.223,199.807Z" transform="translate(-314.885 73.615)" fill="#684cb5"/>
      <path id="Path_632" data-name="Path 632" d="M515.265,140.5c.544-2.374-1.393-4.3-3.155-5.531a5.28,5.28,0,0,0-5.641-.7c-2.093.968-2.525,3.5-2.059,5.5.14.607.484,1.255.724,1.957.073.219.1.453.187.674a4.106,4.106,0,0,0,5.287,2.439C512.654,144.256,514.776,142.634,515.265,140.5Z" transform="translate(-296.677 -27.839)" fill="#684cb5"/>
      <path id="Path_633" data-name="Path 633" d="M478.746,215.774a5.407,5.407,0,0,0,2,3.959,4.941,4.941,0,0,0,.6.4c.1.073.206.141.315.208.06.034.117.083.177.112s.1.068.161.1a4.216,4.216,0,0,0,4.732-.705c2.39-2.233,2.08-6.827-1-8.327A4.977,4.977,0,0,0,478.746,215.774Z" transform="translate(-337.552 96.088)" fill="#684cb5"/>
      <path id="Path_634" data-name="Path 634" d="M483.271,227.8a2.676,2.676,0,0,0-.458,1.557,3.869,3.869,0,0,0,.135,1.541,6.667,6.667,0,0,0,4.037,4.061c2.015.567,3.746.409,5.247-1.166,3.23-3.394-.055-8.158-4.074-8.509A5.715,5.715,0,0,0,483.271,227.8Z" transform="translate(-331.066 118.883)" fill="#684cb5"/>
      <path id="Path_635" data-name="Path 635" d="M508.8,189.246c-1.408-1.614-2.84-4.193-5.1-4.7-2.1-.469-4.607.036-5.75,2.049a5.306,5.306,0,0,0,.593,5.5,9.435,9.435,0,0,0,2.5,2.228c1.132.786,2.14,1.783,3.256,2.46,1.718,1.039,4.415.867,5.412-1.132A5.513,5.513,0,0,0,508.8,189.246Z" transform="translate(-307.619 53.334)" fill="#684cb5"/>
      <path id="Path_636" data-name="Path 636" d="M496.749,221.19A6.533,6.533,0,0,0,501.206,230c.078.021.159.036.237.055,3.038,1.223,6.776,1.46,8.663-1.8C514.7,220.318,500.047,212.459,496.749,221.19Z" transform="translate(-309.451 106.202)" fill="#684cb5"/>
      <path id="Path_637" data-name="Path 637" d="M509.577,165.682a4.374,4.374,0,0,0-2.337,6.984,4.025,4.025,0,0,0,2.348,1.437c.039.013.076.031.117.042a2.9,2.9,0,0,0,.388.057c.034,0,.063.013.094.016a3.771,3.771,0,0,0,3.933-2.6C515.012,168.891,512.857,164.859,509.577,165.682Z" transform="translate(-293.415 23.188)" fill="#684cb5"/>
      <path id="Path_638" data-name="Path 638" d="M540.451,143.152c-.422-5.979-8.085-9.142-12.242-4.586-2.264,2.481-.744,6.554,1.411,9.011a6.894,6.894,0,0,0,1.437,1.452c1.145.734,3.124.357,4.37.164A6.046,6.046,0,0,0,540.451,143.152Z" transform="translate(-260.055 -23.573)" fill="#684cb5"/>
      <path id="Path_639" data-name="Path 639" d="M529.367,159.3c3.02-.81,5.417-4.311,3.022-7.041-.989-1.127-2.967-2.1-4.493-1.507a5.506,5.506,0,0,0-3.29,3.688,4.366,4.366,0,0,0,.109,2.369,3.184,3.184,0,0,0,1.195,1.663A3.49,3.49,0,0,0,529.367,159.3Z" transform="translate(-264.22 -0.857)" fill="#684cb5"/>
      <path id="Path_640" data-name="Path 640" d="M519.4,135.152a7.342,7.342,0,0,0,4.6-1.314c2.291-1.619,4.5-4,2.944-6.882-1.223-2.27-4.691-2.824-6.966-3.053-2.681-.273-5.779.81-7.161,3.207-1.234,2.142-.135,5.026,1.687,6.424A8.743,8.743,0,0,0,519.4,135.152Z" transform="translate(-283.762 -43.675)" fill="#684cb5"/>
      <path id="Path_641" data-name="Path 641" d="M524.531,188.082c-.508-3.15-.791-6.151-3.621-8.059a5.735,5.735,0,0,0-7.785,1.559c-.95,1.4-1,3.243-1.288,5.026-.265,1.669-.768,3.249-.023,4.9,1.52,3.36,5.557,3.428,8.665,2.8C523.693,193.66,525.031,191.179,524.531,188.082Z" transform="translate(-285.164 44.898)" fill="#684cb5"/>
      <path id="Path_642" data-name="Path 642" d="M514.065,218.78c-1.757,1.848-1.445,5.373,1.333,8.566,1.742,2,3.98,2.439,6.055.981a10.972,10.972,0,0,0,4.282-4.951c.942-2.757-2-5.006-4.235-5.716C519.331,216.973,515.718,217.039,514.065,218.78Z" transform="translate(-282.676 106.03)" fill="#684cb5"/>
      <path id="Path_643" data-name="Path 643" d="M512.3,199.048a5.477,5.477,0,0,0-2.783,4.032,5.918,5.918,0,0,0,1.491,4.532c1.015,1.348,2.278,2.327,4.053,2.054a5.816,5.816,0,0,0,4.172-3.67,5.733,5.733,0,0,0-1.268-5.888A4.962,4.962,0,0,0,512.3,199.048Z" transform="translate(-288.308 76.126)" fill="#684cb5"/>
      <path id="Path_644" data-name="Path 644" d="M512.019,233.065a4.216,4.216,0,0,0-.7,5.024,4.532,4.532,0,0,0,1.8,2l.016.005a5.733,5.733,0,0,0,1.15.656,14.387,14.387,0,0,1,2.33,1.827c1.669,1.184,3.774.029,4.711-1.45.984-1.554.336-3.493-.44-4.951a9.17,9.17,0,0,0-3.824-3.943A4.459,4.459,0,0,0,512.019,233.065Z" transform="translate(-286.179 129.344)" fill="#684cb5"/>
      <path id="Path_645" data-name="Path 645" d="M476.07,213a4.85,4.85,0,0,0-5.393-.75,3.755,3.755,0,0,0-2.1,2.371c-.211.807-.476.885-.981,1.52-1.38,1.744-.242,3.537,1.322,4.714a4.706,4.706,0,0,0,4.649.765C476.841,220.416,479.249,215.595,476.07,213Z" transform="translate(-356.416 97.223)" fill="#684cb5"/>
      <path id="Path_646" data-name="Path 646" d="M525.969,129.391a4.062,4.062,0,0,0,3.314,2,2.612,2.612,0,0,0,2.3-1,5.645,5.645,0,0,0,1.151-1.333,3.544,3.544,0,0,0-3.793-5.276A4.108,4.108,0,0,0,525.969,129.391Z" transform="translate(-262.402 -43.966)" fill="#684cb5"/>
      <path id="Path_647" data-name="Path 647" d="M523.448,150.652a4.8,4.8,0,0,0,1.359-5.05,4.212,4.212,0,0,0-4.144-3.009c-2.054.073-3.373,1.619-4.326,3.262-.8,1.382-.328,2.809.219,4.183a3.46,3.46,0,0,0,2.07,2.272C520.155,152.869,522.355,151.7,523.448,150.652Z" transform="translate(-277.974 -13.653)" fill="#684cb5"/>
      <path id="Path_648" data-name="Path 648" d="M542.38,135.439a5.327,5.327,0,0,0,.651,2.239,2.815,2.815,0,0,0,1.885,1.793,9.375,9.375,0,0,0,1.71.122,5.813,5.813,0,0,0,1.885-.1c1.5-.328,2.733-2.3,2.793-3.772a5.034,5.034,0,0,0-1.848-3.746,3.782,3.782,0,0,0-4.428-.437A5.006,5.006,0,0,0,542.38,135.439Z" transform="translate(-235.548 -32.199)" fill="#684cb5"/>
      <path id="Path_649" data-name="Path 649" d="M529.683,174.651a4.416,4.416,0,0,0,1.765,1.52c.023.013.034.034.057.049a2.253,2.253,0,0,0,2.671-.429,4.283,4.283,0,0,0,1.374-3.334c-.091-1.38-.757-3.074-2.127-3.634a3.028,3.028,0,0,0-3.959,1.689A4.333,4.333,0,0,0,529.683,174.651Z" transform="translate(-256.925 28.012)" fill="#684cb5"/>
      <path id="Path_650" data-name="Path 650" d="M549.169,160.617c2.5-.112,3.7-2.507,3.308-4.724-.833-4.649-8-5.464-10.88-2.538a4.018,4.018,0,0,0-.047,5.737c1.255,1.333,3.29,1.314,5.058,1.359C547.469,160.471,548.326,160.656,549.169,160.617Z" transform="translate(-238.764 0.86)" fill="#684cb5"/>
      <path id="Path_651" data-name="Path 651" d="M516.772,160.207c-1.692,1.049-1.819,3-1.507,4.753a2.921,2.921,0,0,0,4.022,2.426,4.211,4.211,0,0,0,2.538-2.47,3.888,3.888,0,0,0,.229-3.436,2.684,2.684,0,0,0-2.647-2.1A10.541,10.541,0,0,0,516.772,160.207Z" transform="translate(-279.221 13.259)" fill="#684cb5"/>
      <path id="Path_652" data-name="Path 652" d="M541.2,160.456a4.254,4.254,0,0,0-1.221-3.475,3.107,3.107,0,0,0-1.536-.851,2.637,2.637,0,0,0-2.483.393,5.469,5.469,0,0,0-1,.646,3.932,3.932,0,0,0-.979,4.641,4.308,4.308,0,0,0,3.777,2.309,3.482,3.482,0,0,0,3.465-3.407C541.221,160.62,541.2,160.544,541.2,160.456Z" transform="translate(-249.592 7.799)" fill="#684cb5"/>
      <path id="Path_653" data-name="Path 653" d="M518.713,206.578a6.006,6.006,0,0,0-1.049,4.623c.245,1.869,1.3,3.623,3.642,3.467A3.466,3.466,0,0,0,523.5,213.6a3.215,3.215,0,0,0,.656-1.151c.2-.64-.039-.992.1-1.268a2.12,2.12,0,0,1,1.7-1.145c1.135-.393,1.252-1.171,1.374-2.192.221-1.877-1.851-3.4-3.524-3.465A6.373,6.373,0,0,0,518.713,206.578Z" transform="translate(-275.272 85.387)" fill="#684cb5"/>
      <path id="Path_654" data-name="Path 654" d="M529.685,221.425c-1.5,1.827-2.083,3.938-.771,5.883a3.29,3.29,0,0,0,1.3,1.465c2.353,1.382,4.99.331,6.854-1.364,2.744-2.5,4.394-10.149-1.273-9.967C533.3,217.524,531.156,219.629,529.685,221.425Z" transform="translate(-258.293 106.328)" fill="#684cb5"/>
      <path id="Path_655" data-name="Path 655" d="M534.778,235.336c1.4,1.5,3.517,2.4,5.646,1.117,3.207-1.934,3.022-6.567.232-8.756a4.781,4.781,0,0,0-7.759,3.488A5.782,5.782,0,0,0,534.778,235.336Z" transform="translate(-250.759 121.076)" fill="#684cb5"/>
      <path id="Path_656" data-name="Path 656" d="M543.708,180.872c-2.5-1.416-6.151-1.7-8.488.185-3.584,2.889-2.559,8.72.458,11.578,1.213,1.148,3.631,1.419,5.477,1.741,3.808.664,5.547-2.382,5.953-5.648C547.436,186.083,546.129,182.241,543.708,180.872Z" transform="translate(-250.668 45.876)" fill="#684cb5"/>
      <path id="Path_657" data-name="Path 657" d="M544.993,202.943c-1.69-.973-3.616-.8-5.495-.789a6.021,6.021,0,0,0-5.362,2.991c-1.044,1.809-.081,3.9,1.437,5.037a5.573,5.573,0,0,0,1.653.726,10.5,10.5,0,0,0,4,.45c.885-.052,1.286.521,2.111.692a3.474,3.474,0,0,0,2.66-.333C548.895,209.976,547.5,204.387,544.993,202.943Z" transform="translate(-249.456 81.794)" fill="#684cb5"/>
      <path id="Path_658" data-name="Path 658" d="M562.363,180.973a5.114,5.114,0,0,0-5.344.06,6.02,6.02,0,0,0-2.983,5.005,6.144,6.144,0,0,0,1.275,3.85,5.736,5.736,0,0,0,8.962.893C567.282,187.623,565.57,183.128,562.363,180.973Z" transform="translate(-216.87 46.705)" fill="#684cb5"/>
      <path id="Path_659" data-name="Path 659" d="M557.394,203.582a1.026,1.026,0,0,0,.216-.078c1.991-.981,3.04-1.117,3.694-2.686a2.818,2.818,0,0,0-.38-3.225,4.735,4.735,0,0,0-3.714-2.077,4.5,4.5,0,0,0-4.816,5.461,3.5,3.5,0,0,0,2.72,2.757A4.836,4.836,0,0,0,557.394,203.582Z" transform="translate(-219.665 71.139)" fill="#684cb5"/>
      <path id="Path_660" data-name="Path 660" d="M523.346,190.419a3.853,3.853,0,0,0-1.807,3.881,5.5,5.5,0,0,0,1.218,2.619,7.514,7.514,0,0,0,.976,1.208,4.239,4.239,0,0,0,4.407.854,4.05,4.05,0,0,0,2.621-3.9,5.769,5.769,0,0,0-2.657-4.472A5.147,5.147,0,0,0,523.346,190.419Z" transform="translate(-269.004 62.223)" fill="#684cb5"/>
      <path id="Path_661" data-name="Path 661" d="M558.247,166.849a5.284,5.284,0,0,0-.422,4.042,8.484,8.484,0,0,0,.8,3.165c.948,2.035,3.847,3.514,5.927,2.2,3.936-2.483,2.642-8.657-1.067-10.672A3.9,3.9,0,0,0,558.247,166.849Z" transform="translate(-211.122 22.39)" fill="#684cb5"/>
      <path id="Path_662" data-name="Path 662" d="M546.688,177.912c2.16-1.018,4.61-3.259,5.151-5.643.518-2.259-.828-5.151-3.165-5.8-3.8-1.052-5.588,2.452-6.95,7a3.853,3.853,0,0,0-.049,1.866A3.5,3.5,0,0,0,546.688,177.912Z" transform="translate(-236.817 24.324)" fill="#684cb5"/>
    </g>
  </g>
</svg>
