<svg id="Group_42" data-name="Group 42" xmlns="http://www.w3.org/2000/svg" width="48.86" height="48.86" viewBox="0 0 48.86 48.86">
  <path id="Path_715" data-name="Path 715" d="M-173.149,45.217h-11.54a4.9,4.9,0,0,0-4.894,4.894v11.54a4.9,4.9,0,0,0,4.894,4.894h11.54a4.9,4.9,0,0,0,4.894-4.894V50.111A4.9,4.9,0,0,0-173.149,45.217Zm-5.77,17.234a6.577,6.577,0,0,1-6.57-6.57,6.568,6.568,0,0,1,6.57-6.551,6.568,6.568,0,0,1,6.57,6.551A6.577,6.577,0,0,1-178.919,62.451Zm8.042-12.334a1.587,1.587,0,0,1-1.129.47,1.587,1.587,0,0,1-1.129-.47,1.587,1.587,0,0,1-.47-1.129,1.588,1.588,0,0,1,.47-1.129,1.588,1.588,0,0,1,1.129-.47,1.544,1.544,0,0,1,1.138.479,1.529,1.529,0,0,1,.462,1.12A1.587,1.587,0,0,1-170.877,50.117Z" transform="translate(203.349 -31.451)" fill="#d0f2ff"/>
  <path id="Path_716" data-name="Path 716" d="M-166.412,64.008a4.442,4.442,0,0,0-4.437,4.437,4.432,4.432,0,0,0,4.437,4.418,4.432,4.432,0,0,0,4.437-4.418A4.442,4.442,0,0,0-166.412,64.008Z" transform="translate(190.842 -43.996)" fill="#d0f2ff"/>
  <path id="Path_717" data-name="Path 717" d="M-206.57,3.8A24.47,24.47,0,0,0-231,28.23a24.47,24.47,0,0,0,24.43,24.43,24.47,24.47,0,0,0,24.43-24.43A24.47,24.47,0,0,0-206.57,3.8Zm12.8,30.2a7.035,7.035,0,0,1-7.027,7.027h-11.54A7.035,7.035,0,0,1-219.367,34V22.46a7.035,7.035,0,0,1,7.027-7.027h11.54a7.035,7.035,0,0,1,7.027,7.027Z" transform="translate(231 -3.8)" fill="#d0f2ff"/>
</svg>
