<svg xmlns="http://www.w3.org/2000/svg" xmlns:xlink="http://www.w3.org/1999/xlink" width="152.155" height="152.154" viewBox="0 0 152.155 152.154">
  <defs>
    <clipPath id="clip-path">
      <rect id="Rectangle_124" data-name="Rectangle 124" width="105.589" height="105.589" rx="32.215" transform="translate(74.663) rotate(45)" fill="none"/>
    </clipPath>
  </defs>
  <g id="Group_32" data-name="Group 32" transform="translate(-1340.413 -209.967)">
    <rect id="Rectangle_123" data-name="Rectangle 123" width="89.102" height="89.102" rx="27.184" transform="translate(1410.661 228.868) rotate(45)" fill="#ffe269"/>
    <g id="Group_31" data-name="Group 31" transform="translate(1341.828 211.381)">
      <g id="Group_30" data-name="Group 30" clip-path="url(#clip-path)">
        <path id="Path_670" data-name="Path 670" d="M1384.667,324.575h94.093v-2.058H1474V303.947h3.731a1.031,1.031,0,0,0,1.03-1.029V293.4a1.03,1.03,0,0,0-1.03-1.029h-37.054V266.421a1.03,1.03,0,0,0-1.03-1.029H1435.9l-.042-.512c-.856-10.39-10.341-18.53-21.594-18.53s-20.738,8.14-21.595,18.53l-.042.512h-3.753a1.03,1.03,0,0,0-1.029,1.029v56.1h-3.173Zm23.8-2.058h-10.636V275.384h32.852v16.984h-25.947a1.03,1.03,0,0,0-1.029,1.029v9.521a1.03,1.03,0,0,0,1.029,1.029h3.731Zm6.348,0h-4.289V303.947h4.289Zm25.388,0h-4.289v-9.05h4.289Zm6.348,0h-4.289v-9.05h4.289Zm19.042,0h-16.983v-9.05h3.173V311.41h-21.1v2.058h3.173v9.05h-16.984V303.947h48.72Zm6.348,0h-4.289V303.947h4.289Zm4.76-28.092v7.463h-70.936v-7.463Zm-44.192-34.572a16.671,16.671,0,0,1,1.266,4.925l.061.613H1424.8l-.02-.537a37.488,37.488,0,0,0-.48-4.69l-.108-.649h8.177Zm-11.127-10.214a19.37,19.37,0,0,1,9.278,6.933l.641.885h-7.578l-.11-.414a24.9,24.9,0,0,0-1.706-4.552,17.654,17.654,0,0,0-1.174-2.014l-.947-1.4Zm-6.1-1.172.8.4a9.752,9.752,0,0,1,3.978,4.551,22.1,22.1,0,0,1,1.314,3.322l.219.72h-6.316Zm0,11.048h6.8l.083.457a34.71,34.71,0,0,1,.539,4.838l.024.581h-7.451Zm-2.862-10.651.8-.4v8.99h-6.316l.219-.72a22.007,22.007,0,0,1,1.312-3.318l0,0A9.744,9.744,0,0,1,1412.425,248.865Zm.8,10.651v5.876h-7.451l.024-.581a34.857,34.857,0,0,1,.538-4.838l.084-.457Zm-15.374-2.943a19.371,19.371,0,0,1,9.278-6.933l1.593-.562-.944,1.4a17.665,17.665,0,0,0-1.175,2.017,24.823,24.823,0,0,0-1.706,4.549l-.111.414h-7.578Zm-3.114,8.206a16.634,16.634,0,0,1,1.266-4.925l.145-.338h8.176l-.108.649a37.671,37.671,0,0,0-.479,4.69l-.02.537h-9.042Zm-4.843,2.671h48.72v24.918h-5.876V274.355a1.03,1.03,0,0,0-1.029-1.029H1396.8a1.03,1.03,0,0,0-1.028,1.029v48.163H1389.9Z" transform="translate(-1349.773 -217.866)" fill="#ff8b00"/>
      </g>
    </g>
    <rect id="Rectangle_125" data-name="Rectangle 125" width="105.589" height="105.589" rx="32.215" transform="translate(1416.49 211.381) rotate(45)" fill="none" stroke="#ffe269" stroke-miterlimit="10" stroke-width="2"/>
  </g>
</svg>
