<svg xmlns="http://www.w3.org/2000/svg" width="251.667" height="104.648" viewBox="0 0 251.667 104.648">
  <g id="Logo_2" data-name="Logo 2" transform="translate(43.353 -207.602)">
    <g id="Group_36" data-name="Group 36" transform="translate(-43.353 207.602)">
      <g id="Group_35" data-name="Group 35">
        <g id="Group_34" data-name="Group 34">
          <path id="Path_678" data-name="Path 678" d="M-11.931,251.063l-.015-1.822c-.025-2.892-.046-5.876-.243-8.829A12.069,12.069,0,0,0-21.675,229.2a30.08,30.08,0,0,0-18.363,1.932,5.247,5.247,0,0,0-3.314,5.234c.031,3.211.025,6.42.018,9.63l-.008,3.382,0,13.892a3.262,3.262,0,0,0,2.612,3.381,9.456,9.456,0,0,0,2.03.257,4.652,4.652,0,0,0,4.193-4.69v-.321l-.117-8.319,0-15.011c0-.183,0-.336.007-.452.1-.031.23-.073.39-.122a22.071,22.071,0,0,1,8.656-.85c2.744.262,4.12,1.578,4.6,4.414a14.4,14.4,0,0,1,.179,2.391c.011,3.974.011,7.955.011,11.924v6.817l.009.031c0,.017,0,.033,0,.05a4.426,4.426,0,0,0,4.426,4.426,4.426,4.426,0,0,0,4.426-4.426l-.009-2.716C-11.912,257.055-11.9,254.059-11.931,251.063Z" transform="translate(43.353 -213.652)" fill="#37c7fc" fill-rule="evenodd"/>
          <path id="Path_679" data-name="Path 679" d="M133.237,212.143c0-.032-.009-.061-.009-.092l0-.084a1.907,1.907,0,0,0-.034-.233,4.528,4.528,0,0,0-9.039.41l.117,15.76,0,12.08c0,4.886-.116,11.673-.119,16.619v.013c0,.075,0,.158,0,.232,0,0,.018.122.054.3a4.528,4.528,0,0,0,9.027-.534l-.018-44.054,0-.278C133.225,212.232,133.237,212.189,133.237,212.143Z" transform="translate(-5.07 -207.602)" fill="#37c7fc" fill-rule="evenodd"/>
          <path id="Path_680" data-name="Path 680" d="M40.261,232.059a3.323,3.323,0,0,0-.684-1.594,4.447,4.447,0,0,0-8.117,2.514l.028,20.873c0,1.187-.011,2.373,0,3.737a18.852,18.852,0,0,1-9.684.885,4.409,4.409,0,0,1-3.843-3.491,12.077,12.077,0,0,1-.321-2.809c-.035-2.532-.028-5.065-.023-7.6l0-5.495c0-2.109.066-4,.06-6.1a4.439,4.439,0,0,0-8.839-.591l-.06.053.033.208c-.009.111-.033.218-.033.33,0,.082.02.158.023.237a.227.227,0,0,0,0,.07c0,.323,0,.645-.006.968-.015,2.633-.021,5.267,0,7.895l.018,3.141c.011,3.1.022,6.3.183,9.466.318,6.27,4.121,10.714,10.173,11.894a29.215,29.215,0,0,0,5.611.547,31.928,31.928,0,0,0,12.086-2.471,5.373,5.373,0,0,0,3.489-5.3q-.026-8.325-.011-16.658V233.1c0-.041.012-.079.012-.12A4.458,4.458,0,0,0,40.261,232.059Z" transform="translate(28.282 -213.652)" fill="#37c7fc" fill-rule="evenodd"/>
          <path id="Path_681" data-name="Path 681" d="M231.131,232.059a3.316,3.316,0,0,0-.683-1.594,4.447,4.447,0,0,0-8.117,2.514l.028,20.873c0,1.187-.011,2.373,0,3.737a18.853,18.853,0,0,1-9.684.885,4.409,4.409,0,0,1-3.843-3.491,12.077,12.077,0,0,1-.321-2.809c-.036-2.532-.028-5.065-.023-7.6l0-5.495c0-2.109.067-4,.06-6.1a4.439,4.439,0,0,0-8.84-.591l-.06.053.033.208c-.008.111-.033.218-.033.33,0,.082.02.158.024.237a.207.207,0,0,0-.006.07l0,.968c-.015,2.633-.021,5.267,0,7.895l.019,3.141c.011,3.1.022,6.3.183,9.466.318,6.27,4.121,10.714,10.173,11.894a29.216,29.216,0,0,0,5.612.547,31.921,31.921,0,0,0,12.085-2.471,5.373,5.373,0,0,0,3.49-5.3q-.026-8.325-.011-16.658V233.1c0-.041.012-.079.012-.12A4.458,4.458,0,0,0,231.131,232.059Z" transform="translate(-26.894 -213.652)" fill="#37c7fc" fill-rule="evenodd"/>
          <path id="Path_682" data-name="Path 682" d="M268.642,243.4l-2-.277c-3.978-.554-5.751-1.789-5.751-4,0-2.436,1.849-3.891,4.948-3.891a15.1,15.1,0,0,1,6.432,1.538,5.594,5.594,0,0,0,2.466.63,3.645,3.645,0,0,0,3.727-3.727,3.888,3.888,0,0,0-2.025-3.423c-2.42-1.512-6.7-2.529-10.655-2.529-8.244,0-13.571,4.607-13.571,11.736,0,6.54,4.071,10.413,12.1,11.511l2,.279c5,.679,5.692,2.352,5.692,4.059,0,2.64-2.3,4.28-6,4.28-2.666,0-4.844-.657-8.034-2.423a4.952,4.952,0,0,0-2.476-.691,3.771,3.771,0,0,0-3.839,3.784,4.257,4.257,0,0,0,2.022,3.587l0,0a22.8,22.8,0,0,0,11.988,3.25c9.263,0,15.017-4.625,15.017-12.069C280.689,248.255,276.86,244.563,268.642,243.4Z" transform="translate(-41.927 -213.416)" fill="#37c7fc" fill-rule="evenodd"/>
          <path id="Path_683" data-name="Path 683" d="M161.978,228.53c-7.892,0-13.66,3.771-15.827,10.348a27.546,27.546,0,0,0-1.145,8.874,26.945,26.945,0,0,0,1.221,8.792v.005c2.164,6.72,7.977,10.422,16.37,10.422a22.286,22.286,0,0,0,13.344-3.961,4.093,4.093,0,0,0,2-3.545,3.469,3.469,0,0,0-3.548-3.626,7.233,7.233,0,0,0-3.516,1.108,15.709,15.709,0,0,1-7.269,2c-4.137,0-7.106-1.885-8.147-5.174a7.089,7.089,0,0,1-.407-2.293.812.812,0,0,1,.874-.875h19.939a2.934,2.934,0,0,0,3.161-3.161A26.647,26.647,0,0,0,177.8,238.8C175.648,232.176,170.026,228.53,161.978,228.53Zm6.283,15.672H155.925a.811.811,0,0,1-.874-.874,9.257,9.257,0,0,1,.406-2.911c.905-2.8,3.308-4.4,6.6-4.4,3.339,0,5.771,1.6,6.673,4.394a9.318,9.318,0,0,1,.409,2.919A.811.811,0,0,1,168.261,244.2Z" transform="translate(-11.097 -213.652)" fill="#37c7fc" fill-rule="evenodd"/>
          <path id="Path_684" data-name="Path 684" d="M100.635,248.558a19.357,19.357,0,0,0-36.817-9.033,18.564,18.564,0,0,0-.038,16.614A19.436,19.436,0,0,0,85.1,266.825v0a4.472,4.472,0,1,0-1.783-8.764,10.755,10.755,0,0,1-7.6-1.381,9.122,9.122,0,0,1-3.815-4.253,10.93,10.93,0,0,1-.518-7.561,4.542,4.542,0,1,0,5.86-6.545,10.6,10.6,0,0,1,7.311-.357,9.243,9.243,0,0,1,4.416,3.085,10.508,10.508,0,0,1,2.728,7.237.718.718,0,0,0,.009.1c0,.063-.018.122-.018.186a4.461,4.461,0,0,0,8.91.328c.006-.052.031-.073.033-.13s0-.127,0-.191v-.013Z" transform="translate(12.945 -213.652)" fill="#37c7fc" fill-rule="evenodd"/>
        </g>
      </g>
    </g>
    <g id="Group_38" data-name="Group 38" transform="translate(97.122 272.894)">
      <g id="Group_37" data-name="Group 37" transform="translate(0 0)">
        <path id="Path_685" data-name="Path 685" d="M154.241,300.385a.747.747,0,0,1,.8-.8h4.205c2.724,0,4.365,1.642,4.365,4.066s-1.642,4.064-4.365,4.064h-3.1a.106.106,0,0,0-.12.12v4.506a.894.894,0,1,1-1.782,0Zm7.61,3.265c0-1.482-.982-2.4-2.663-2.4h-3.044a.106.106,0,0,0-.12.12v4.566a.106.106,0,0,0,.12.12h3.044C160.869,306.053,161.851,305.131,161.851,303.65Z" transform="translate(-154.241 -299.484)" fill="#fff"/>
        <path id="Path_686" data-name="Path 686" d="M180.2,314.047a.806.806,0,0,1-.861.8.879.879,0,0,1-.741-.42l-.381-.6h-.02a3.647,3.647,0,0,1-2.944,1.142c-2.142,0-3.383-1.061-3.383-2.884,0-1.983,1.361-2.964,3.744-2.964H177.8a.106.106,0,0,0,.12-.12v-.461c0-1.342-.621-2.1-2.3-2.1a4.556,4.556,0,0,0-1.961.481,1.194,1.194,0,0,1-.481.14.674.674,0,0,1-.722-.721.765.765,0,0,1,.4-.681,5.373,5.373,0,0,1,2.923-.721c2.563,0,3.765,1.221,3.765,3.584v3.444a1.864,1.864,0,0,0,.18.981l.341.621A1.026,1.026,0,0,1,180.2,314.047Zm-2.283-2.4v-1.061a.106.106,0,0,0-.12-.121h-1.922c-1.642,0-2.383.481-2.383,1.562,0,1,.721,1.5,2,1.5C176.978,313.527,177.919,312.826,177.919,311.644Z" transform="translate(-159.338 -301.031)" fill="#fff"/>
        <path id="Path_687" data-name="Path 687" d="M191.849,313.668c-1.963,0-2.684-.82-2.684-2.824v-5.387a.106.106,0,0,0-.12-.12H188.5a.682.682,0,1,1,0-1.361h.541a.106.106,0,0,0,.12-.12v-2.1a.843.843,0,1,1,1.682,0v2.1a.106.106,0,0,0,.12.12h1.262a.682.682,0,1,1,0,1.361h-1.262a.106.106,0,0,0-.12.12v5.327c0,1.022.261,1.322,1.282,1.322a.747.747,0,0,1,.82.781c0,.461-.3.781-.9.781Z" transform="translate(-163.937 -299.85)" fill="#fff"/>
        <path id="Path_688" data-name="Path 688" d="M200.654,300.344a.843.843,0,1,1,1.682,0v4.305h.02a3.034,3.034,0,0,1,2.684-1.3c2.083,0,3.324,1.421,3.324,3.6v5.407a.843.843,0,1,1-1.683,0v-5.006c0-1.542-.7-2.443-2.142-2.443a2.153,2.153,0,0,0-2.2,2.343v5.106a.843.843,0,1,1-1.682,0Z" transform="translate(-167.658 -299.443)" fill="#fff"/>
        <path id="Path_689" data-name="Path 689" d="M217.76,312.385a9.392,9.392,0,0,1,0-4.866,4.065,4.065,0,0,1,7.57,0,9.412,9.412,0,0,1,0,4.866,4.064,4.064,0,0,1-7.57,0Zm5.948-.481a6.291,6.291,0,0,0,.22-1.963,6.147,6.147,0,0,0-.22-1.942,2.308,2.308,0,0,0-4.325,0,6.146,6.146,0,0,0-.22,1.942,6.29,6.29,0,0,0,.22,1.963,2.308,2.308,0,0,0,4.325,0Z" transform="translate(-172.51 -301.031)" fill="#fff"/>
        <path id="Path_690" data-name="Path 690" d="M237.328,313.261c-1.723,0-2.343-.841-2.343-2.564V300.344a.843.843,0,1,1,1.682,0V310.6c0,.8.26,1.1.921,1.1a.736.736,0,0,1,.781.781.76.76,0,0,1-.861.781Z" transform="translate(-177.582 -299.443)" fill="#fff"/>
        <path id="Path_691" data-name="Path 691" d="M244.656,312.385a9.413,9.413,0,0,1,0-4.866,4.064,4.064,0,0,1,7.569,0,9.393,9.393,0,0,1,0,4.866,4.064,4.064,0,0,1-7.569,0Zm5.948-.481a6.269,6.269,0,0,0,.22-1.963A6.126,6.126,0,0,0,250.6,308a2.308,2.308,0,0,0-4.325,0,6.126,6.126,0,0,0-.22,1.942,6.269,6.269,0,0,0,.22,1.963,2.308,2.308,0,0,0,4.325,0Z" transform="translate(-180.285 -301.031)" fill="#fff"/>
        <path id="Path_692" data-name="Path 692" d="M267.34,306.2v-.24a.843.843,0,1,1,1.682,0v8.31c0,2.864-1.522,4.305-4.185,4.305a4.41,4.41,0,0,1-3.043-1.141.781.781,0,0,1-.24-.541.753.753,0,0,1,.761-.781,1.161,1.161,0,0,1,.68.26,3.2,3.2,0,0,0,1.9.641c1.542,0,2.443-.761,2.443-2.6v-1.042h-.02a2.8,2.8,0,0,1-2.684,1.261,3.209,3.209,0,0,1-3.223-2.382,9.6,9.6,0,0,1,0-4.927,3.209,3.209,0,0,1,3.223-2.383,2.911,2.911,0,0,1,2.684,1.262Zm-.22,5.387a5.417,5.417,0,0,0,.22-1.8,5.36,5.36,0,0,0-.22-1.782,2.14,2.14,0,0,0-4.085,0,5.358,5.358,0,0,0-.22,1.782,5.415,5.415,0,0,0,.22,1.8,2.14,2.14,0,0,0,4.085,0Z" transform="translate(-185.129 -301.031)" fill="#fff"/>
        <path id="Path_693" data-name="Path 693" d="M279.126,318.4a.782.782,0,1,1,0-1.563c.781,0,1.242-.3,1.662-1.442l.321-.881-3.264-8.23a1.305,1.305,0,0,1-.08-.4.839.839,0,0,1,1.642-.181l2.5,6.628h.04l2.4-6.628a.782.782,0,0,1,.781-.6.768.768,0,0,1,.821.781,1.305,1.305,0,0,1-.08.4l-3.6,9.452c-.841,2.163-1.6,2.664-2.984,2.664Z" transform="translate(-189.949 -301.08)" fill="#fff"/>
      </g>
    </g>
    <g id="Group_40" data-name="Group 40" transform="translate(-41.67 294.589)">
      <g id="Group_39" data-name="Group 39">
        <path id="Path_694" data-name="Path 694" d="M-40.986,331.069a.747.747,0,0,1,.8-.8h3.464c2.643,0,4.266,1.042,4.926,3.1a10.74,10.74,0,0,1,.4,3.7,10.745,10.745,0,0,1-.4,3.7c-.66,2.062-2.283,3.1-4.926,3.1h-3.464a.747.747,0,0,1-.8-.8Zm1.9,11.154h2.243c1.8,0,2.844-.561,3.324-2.042a9.936,9.936,0,0,0,.32-3.1,9.942,9.942,0,0,0-.32-3.1c-.481-1.482-1.522-2.042-3.324-2.042h-2.243a.106.106,0,0,0-.12.12V342.1A.106.106,0,0,0-39.084,342.224Z" transform="translate(40.986 -330.048)" fill="#fff"/>
        <path id="Path_695" data-name="Path 695" d="M-21.61,331.229a1.1,1.1,0,0,1,1.1-1.1,1.1,1.1,0,0,1,1.1,1.1,1.112,1.112,0,0,1-1.1,1.1A1.112,1.112,0,0,1-21.61,331.229Zm.26,3.826a.827.827,0,0,1,.842-.9.826.826,0,0,1,.841.9v7.989a.826.826,0,0,1-.841.9.827.827,0,0,1-.842-.9Z" transform="translate(35.385 -330.008)" fill="#fff"/>
        <path id="Path_696" data-name="Path 696" d="M-4.351,344.732a.806.806,0,0,1-.862.8.879.879,0,0,1-.741-.42l-.38-.6h-.02A3.647,3.647,0,0,1-9.3,345.653c-2.143,0-3.384-1.061-3.384-2.883,0-1.983,1.362-2.964,3.744-2.964h2.183a.107.107,0,0,0,.121-.12v-.461c0-1.341-.621-2.1-2.3-2.1a4.562,4.562,0,0,0-1.962.481,1.187,1.187,0,0,1-.481.14.672.672,0,0,1-.721-.72.765.765,0,0,1,.4-.681,5.369,5.369,0,0,1,2.924-.721c2.563,0,3.764,1.221,3.764,3.584v3.444a1.865,1.865,0,0,0,.181.981l.341.621A1.034,1.034,0,0,1-4.351,344.732Zm-2.283-2.4v-1.062a.107.107,0,0,0-.121-.12H-8.677c-1.642,0-2.382.481-2.382,1.563,0,1,.72,1.5,2,1.5C-7.575,344.212-6.634,343.511-6.634,342.329Z" transform="translate(32.804 -331.596)" fill="#fff"/>
        <path id="Path_697" data-name="Path 697" d="M10.295,336.882v-.24a.843.843,0,1,1,1.682,0v8.31c0,2.863-1.522,4.305-4.185,4.305a4.412,4.412,0,0,1-3.044-1.142.782.782,0,0,1-.24-.541.753.753,0,0,1,.761-.781,1.156,1.156,0,0,1,.68.26,3.2,3.2,0,0,0,1.9.641c1.542,0,2.443-.761,2.443-2.6v-1.042h-.02a2.8,2.8,0,0,1-2.684,1.262,3.209,3.209,0,0,1-3.224-2.383,9.641,9.641,0,0,1,0-4.926,3.209,3.209,0,0,1,3.224-2.383,2.913,2.913,0,0,1,2.684,1.261Zm-.22,5.387a5.445,5.445,0,0,0,.22-1.8,5.376,5.376,0,0,0-.22-1.782,1.983,1.983,0,0,0-2.042-1.5,1.983,1.983,0,0,0-2.043,1.5,5.379,5.379,0,0,0-.22,1.782,5.447,5.447,0,0,0,.22,1.8,1.983,1.983,0,0,0,2.043,1.5A1.983,1.983,0,0,0,10.074,342.27Z" transform="translate(27.968 -331.596)" fill="#fff"/>
        <path id="Path_698" data-name="Path 698" d="M22.071,336.643a.843.843,0,1,1,1.682,0v.279h.02a3.033,3.033,0,0,1,2.684-1.3c2.082,0,3.324,1.421,3.324,3.6v5.407a.843.843,0,1,1-1.683,0v-5.006c0-1.542-.7-2.443-2.142-2.443a2.153,2.153,0,0,0-2.2,2.343v5.107a.843.843,0,1,1-1.682,0Z" transform="translate(22.758 -331.596)" fill="#fff"/>
        <path id="Path_699" data-name="Path 699" d="M39.149,343.07a9.392,9.392,0,0,1,0-4.866,3.706,3.706,0,0,1,3.785-2.583,3.706,3.706,0,0,1,3.784,2.583,9.392,9.392,0,0,1,0,4.866,3.728,3.728,0,0,1-3.784,2.583A3.729,3.729,0,0,1,39.149,343.07Zm5.948-.481a6.291,6.291,0,0,0,.22-1.962,6.146,6.146,0,0,0-.22-1.942,2.307,2.307,0,0,0-4.325,0,6.146,6.146,0,0,0-.22,1.942,6.291,6.291,0,0,0,.22,1.962,2.308,2.308,0,0,0,4.325,0Z" transform="translate(17.914 -331.596)" fill="#fff"/>
        <path id="Path_700" data-name="Path 700" d="M55.929,344.592a.839.839,0,0,1-.4-.7.765.765,0,0,1,.781-.761,1.057,1.057,0,0,1,.56.18,5.073,5.073,0,0,0,2.684.841c1.381,0,2.1-.6,2.1-1.442,0-.8-.361-1.2-1.883-1.361l-1-.1c-1.883-.2-2.864-1.162-2.864-2.7,0-1.822,1.3-2.923,3.545-2.923a5.877,5.877,0,0,1,2.864.7.774.774,0,0,1,.5.7.718.718,0,0,1-.721.72,1.411,1.411,0,0,1-.6-.16,5.02,5.02,0,0,0-2.123-.5c-1.2,0-1.822.54-1.822,1.322,0,.761.441,1.162,1.883,1.3l1,.1c2,.22,2.884,1.162,2.884,2.724,0,1.882-1.361,3.123-3.9,3.123A6.156,6.156,0,0,1,55.929,344.592Z" transform="translate(13.086 -331.596)" fill="#fff"/>
        <path id="Path_701" data-name="Path 701" d="M74.886,344.352c-1.962,0-2.683-.82-2.683-2.823v-5.387a.106.106,0,0,0-.12-.12h-.54a.682.682,0,1,1,0-1.361h.54a.106.106,0,0,0,.12-.12v-2.1a.843.843,0,1,1,1.682,0v2.1a.106.106,0,0,0,.12.12h1.261a.682.682,0,1,1,0,1.361H74.005a.106.106,0,0,0-.12.12v5.327c0,1.021.26,1.321,1.282,1.321a.748.748,0,0,1,.821.781c0,.461-.3.781-.9.781Z" transform="translate(8.665 -330.415)" fill="#fff"/>
        <path id="Path_702" data-name="Path 702" d="M83.326,331.229a1.1,1.1,0,1,1,2.2,0,1.1,1.1,0,1,1-2.2,0Zm.26,3.826a.843.843,0,1,1,1.682,0v7.989a.843.843,0,1,1-1.682,0Z" transform="translate(5.05 -330.008)" fill="#fff"/>
        <path id="Path_703" data-name="Path 703" d="M92.413,343.07a9.994,9.994,0,0,1,0-4.866,4.059,4.059,0,0,1,6.849-1.181,1.01,1.01,0,0,1,.24.621.726.726,0,0,1-.741.741.994.994,0,0,1-.741-.4,2.272,2.272,0,0,0-1.822-.8,2.081,2.081,0,0,0-2.143,1.5,8.756,8.756,0,0,0,0,3.9,2.081,2.081,0,0,0,2.143,1.5,2.272,2.272,0,0,0,1.822-.8.994.994,0,0,1,.741-.4.726.726,0,0,1,.741.741,1.014,1.014,0,0,1-.24.621,4.059,4.059,0,0,1-6.849-1.182Z" transform="translate(2.511 -331.596)" fill="#fff"/>
        <path id="Path_704" data-name="Path 704" d="M107.974,344.592a.839.839,0,0,1-.4-.7.765.765,0,0,1,.781-.761,1.058,1.058,0,0,1,.561.18,5.071,5.071,0,0,0,2.684.841c1.381,0,2.1-.6,2.1-1.442,0-.8-.36-1.2-1.882-1.361l-1-.1c-1.883-.2-2.864-1.162-2.864-2.7,0-1.822,1.3-2.923,3.545-2.923a5.879,5.879,0,0,1,2.864.7.774.774,0,0,1,.5.7.718.718,0,0,1-.721.72,1.411,1.411,0,0,1-.6-.16,5.02,5.02,0,0,0-2.123-.5c-1.2,0-1.822.54-1.822,1.322,0,.761.441,1.162,1.883,1.3l1,.1c2,.22,2.884,1.162,2.884,2.724,0,1.882-1.361,3.123-3.9,3.123A6.156,6.156,0,0,1,107.974,344.592Z" transform="translate(-1.959 -331.596)" fill="#fff"/>
        <path id="Path_705" data-name="Path 705" d="M135.963,336.187c-1.3-1.7-1.7-2.363-1.7-3.3a3.131,3.131,0,0,1,6.248-.02c0,1.182-.581,2.083-2.424,3.545l2.583,3.344,1.061-1.3a.8.8,0,0,1,.6-.3.68.68,0,0,1,.681.7.777.777,0,0,1-.2.52l-1.221,1.561.7.9a.907.907,0,0,0,.742.4.752.752,0,0,1,.78.761.762.762,0,0,1-.82.8h-.12a1.935,1.935,0,0,1-1.8-.941l-.541-.68a4.819,4.819,0,0,1-3.664,1.841,3.333,3.333,0,0,1-3.605-3.524C133.259,338.95,134.1,337.689,135.963,336.187Zm1,6.348c.8,0,1.462-.24,2.663-1.562l-2.763-3.6c-1.383,1.1-2.023,1.963-2.023,3A1.978,1.978,0,0,0,136.964,342.535Zm1.982-9.692a1.458,1.458,0,0,0-1.561-1.462,1.414,1.414,0,0,0-1.5,1.482c0,.561.22.941,1.3,2.363C138.685,334.024,138.946,333.543,138.946,332.843Z" transform="translate(-9.384 -329.959)" fill="#fff"/>
        <path id="Path_706" data-name="Path 706" d="M162.8,343.025V331.069a.747.747,0,0,1,.8-.8h4.266c2.643,0,4.305,1.542,4.305,3.926a3.617,3.617,0,0,1-2.583,3.664l2.443,4.807a1.01,1.01,0,0,1,.12.481.826.826,0,0,1-.861.84.96.96,0,0,1-.861-.56l-2.684-5.307H164.7a.107.107,0,0,0-.12.12v4.787a.894.894,0,1,1-1.782,0Zm7.61-8.831c0-1.422-.941-2.264-2.523-2.264H164.7a.107.107,0,0,0-.12.12v4.286a.107.107,0,0,0,.12.12h3.184C169.47,336.457,170.412,335.616,170.412,334.194Z" transform="translate(-17.924 -330.048)" fill="#fff"/>
        <path id="Path_707" data-name="Path 707" d="M181.654,343.05a7.279,7.279,0,0,1-.32-2.423,7.359,7.359,0,0,1,.3-2.424,4.026,4.026,0,0,1,7.51-.019,7.059,7.059,0,0,1,.321,2.322.615.615,0,0,1-.661.641h-5.627a.106.106,0,0,0-.12.12,3.542,3.542,0,0,0,.16,1.162,2.353,2.353,0,0,0,2.423,1.662,3.523,3.523,0,0,0,2.3-.82.91.91,0,0,1,.581-.24.684.684,0,0,1,.7.7.833.833,0,0,1-.26.6,4.944,4.944,0,0,1-3.444,1.321A3.7,3.7,0,0,1,181.654,343.05Zm5.967-3.244a.106.106,0,0,0,.12-.12,3.377,3.377,0,0,0-.14-1.082,2.367,2.367,0,0,0-4.406,0,3.377,3.377,0,0,0-.14,1.082.106.106,0,0,0,.12.12Z" transform="translate(-23.281 -331.596)" fill="#fff"/>
        <path id="Path_708" data-name="Path 708" d="M198.322,344.592a.839.839,0,0,1-.4-.7.765.765,0,0,1,.781-.761,1.058,1.058,0,0,1,.561.18,5.071,5.071,0,0,0,2.684.841c1.381,0,2.1-.6,2.1-1.442,0-.8-.361-1.2-1.883-1.361l-1-.1c-1.882-.2-2.864-1.162-2.864-2.7,0-1.822,1.3-2.923,3.545-2.923a5.876,5.876,0,0,1,2.863.7.774.774,0,0,1,.5.7.718.718,0,0,1-.721.72,1.408,1.408,0,0,1-.6-.16,5.02,5.02,0,0,0-2.123-.5c-1.2,0-1.822.54-1.822,1.322,0,.761.44,1.162,1.883,1.3l1,.1c2,.22,2.884,1.162,2.884,2.724,0,1.882-1.362,3.123-3.906,3.123A6.156,6.156,0,0,1,198.322,344.592Z" transform="translate(-28.076 -331.596)" fill="#fff"/>
        <path id="Path_709" data-name="Path 709" d="M214.38,343.05a7.276,7.276,0,0,1-.321-2.423,7.375,7.375,0,0,1,.3-2.424,4.027,4.027,0,0,1,7.51-.019,7.08,7.08,0,0,1,.32,2.322.615.615,0,0,1-.661.641H215.9a.107.107,0,0,0-.12.12,3.541,3.541,0,0,0,.161,1.162,2.352,2.352,0,0,0,2.423,1.662,3.522,3.522,0,0,0,2.3-.82.909.909,0,0,1,.581-.24.684.684,0,0,1,.7.7.836.836,0,0,1-.26.6,4.948,4.948,0,0,1-3.444,1.321A3.7,3.7,0,0,1,214.38,343.05Zm5.968-3.244a.106.106,0,0,0,.12-.12,3.4,3.4,0,0,0-.139-1.082,2.367,2.367,0,0,0-4.406,0,3.4,3.4,0,0,0-.14,1.082.107.107,0,0,0,.12.12Z" transform="translate(-32.741 -331.596)" fill="#fff"/>
        <path id="Path_710" data-name="Path 710" d="M239.2,344.732a.805.805,0,0,1-.86.8.877.877,0,0,1-.741-.42l-.381-.6h-.02a3.647,3.647,0,0,1-2.944,1.141c-2.143,0-3.384-1.061-3.384-2.883,0-1.983,1.362-2.964,3.744-2.964H236.8a.107.107,0,0,0,.12-.12v-.461c0-1.341-.621-2.1-2.3-2.1a4.562,4.562,0,0,0-1.962.481,1.188,1.188,0,0,1-.481.14.672.672,0,0,1-.721-.72.764.764,0,0,1,.4-.681,5.363,5.363,0,0,1,2.923-.721c2.563,0,3.764,1.221,3.764,3.584v3.444a1.858,1.858,0,0,0,.181.981l.34.621A1.026,1.026,0,0,1,239.2,344.732Zm-2.282-2.4v-1.062a.107.107,0,0,0-.12-.12h-1.923c-1.642,0-2.382.481-2.382,1.563,0,1,.721,1.5,2,1.5C235.979,344.212,236.921,343.511,236.921,342.329Z" transform="translate(-37.602 -331.596)" fill="#fff"/>
        <path id="Path_711" data-name="Path 711" d="M248.447,344.632v-7.989a.843.843,0,1,1,1.682,0v.44h.02a2.607,2.607,0,0,1,2.463-1.462,2.782,2.782,0,0,1,1.422.341.8.8,0,0,1,.481.72.81.81,0,0,1-.842.842,1.161,1.161,0,0,1-.42-.1,2.955,2.955,0,0,0-1.1-.24c-1.442,0-2.023,1.2-2.023,2.8v4.646a.843.843,0,1,1-1.682,0Z" transform="translate(-42.682 -331.596)" fill="#fff"/>
        <path id="Path_712" data-name="Path 712" d="M261.139,343.07a10.016,10.016,0,0,1,0-4.866,4.059,4.059,0,0,1,6.849-1.181,1.011,1.011,0,0,1,.24.621.727.727,0,0,1-.741.741,1,1,0,0,1-.741-.4,2.27,2.27,0,0,0-1.821-.8,2.082,2.082,0,0,0-2.143,1.5,8.755,8.755,0,0,0,0,3.9,2.082,2.082,0,0,0,2.143,1.5,2.27,2.27,0,0,0,1.821-.8,1,1,0,0,1,.741-.4.727.727,0,0,1,.741.741,1.015,1.015,0,0,1-.24.621,4.059,4.059,0,0,1-6.849-1.182Z" transform="translate(-46.264 -331.596)" fill="#fff"/>
        <path id="Path_713" data-name="Path 713" d="M277.2,331.029a.843.843,0,1,1,1.682,0v4.305h.02a3.033,3.033,0,0,1,2.684-1.3c2.082,0,3.324,1.421,3.324,3.6v5.407a.843.843,0,1,1-1.683,0v-5.006c0-1.542-.7-2.443-2.142-2.443a2.153,2.153,0,0,0-2.2,2.343v5.107a.843.843,0,1,1-1.682,0Z" transform="translate(-50.994 -330.008)" fill="#fff"/>
      </g>
    </g>
    <rect id="Rectangle_142" data-name="Rectangle 142" width="2.077" height="86.527" transform="translate(206.237 221.899)" fill="#fff"/>
  </g>
</svg>
