<svg xmlns="http://www.w3.org/2000/svg" width="187.779" height="42.212" viewBox="0 0 187.779 42.212">
  <g id="Logo" transform="translate(39.18 -128.751)">
    <g id="logotip" transform="translate(-39.18 128.751)">
      <g id="Group_2" data-name="Group 2">
        <g id="Group_1" data-name="Group 1">
          <path id="Path_453" data-name="Path 453" d="M-48.965,145.209l.306-.1a17.378,17.378,0,0,1,6.808-.669c2.157.207,3.239,1.241,3.619,3.472a11.337,11.337,0,0,1,.14,1.88q.013,4.688.009,9.378v5.362l.007.024c0,.014,0,.026,0,.039A3.48,3.48,0,0,0-34.6,168.08a3.48,3.48,0,0,0,3.481-3.481l-.007-2.136c.008-2.356.015-4.713-.009-7.069l-.012-1.433c-.019-2.275-.036-4.621-.191-6.944a9.492,9.492,0,0,0-7.46-8.82,23.661,23.661,0,0,0-14.442,1.52,4.126,4.126,0,0,0-2.606,4.117c.023,2.525.019,5.049.014,7.574l-.006,2.66,0,10.925a2.565,2.565,0,0,0,2.054,2.659,7.424,7.424,0,0,0,1.6.2,3.657,3.657,0,0,0,3.3-3.688l0-.253-.092-6.542Z" transform="translate(55.844 -125.972)" fill="#37c7fc" fill-rule="evenodd"/>
          <path id="Path_454" data-name="Path 454" d="M60.7,127.576c0-.025-.007-.048-.008-.073l0-.066a1.631,1.631,0,0,0-.027-.183,3.562,3.562,0,0,0-7.11.322l.092,12.4,0,9.5c0,3.843-.092,9.181-.094,13.071v.01c0,.059,0,.124,0,.182,0,0,.015.1.043.232a3.562,3.562,0,0,0,7.1-.42L60.684,127.9l0-.219C60.689,127.646,60.7,127.613,60.7,127.576Z" transform="translate(40.1 -124.005)" fill="#37c7fc" fill-rule="evenodd"/>
          <path id="Path_455" data-name="Path 455" d="M2.962,140.448a2.605,2.605,0,0,0-.538-1.253A3.493,3.493,0,0,0-.46,137.673a3.5,3.5,0,0,0-3.5,3.5l.021,16.416c0,.932-.009,1.865,0,2.939a14.836,14.836,0,0,1-7.617.7,3.467,3.467,0,0,1-3.022-2.745,9.471,9.471,0,0,1-.253-2.21c-.028-1.992-.023-3.983-.019-5.976l0-4.322c0-1.658.052-3.146.047-4.8a3.5,3.5,0,0,0-3.5-3.5,3.488,3.488,0,0,0-3.452,3.035l-.047.041.026.164c-.007.087-.026.17-.026.259,0,.063.015.123.019.187a.14.14,0,0,0,0,.054l-.005.762c-.011,2.071-.016,4.142,0,6.209l.015,2.47c.009,2.437.017,4.956.144,7.445a9.507,9.507,0,0,0,8,9.354,22.965,22.965,0,0,0,4.414.431,25.109,25.109,0,0,0,9.505-1.943,4.228,4.228,0,0,0,2.745-4.167q-.021-6.548-.009-13.1v-7.605c0-.033.009-.062.009-.094A3.535,3.535,0,0,0,2.962,140.448Z" transform="translate(50.944 -125.972)" fill="#37c7fc" fill-rule="evenodd"/>
          <path id="Path_456" data-name="Path 456" d="M127.622,140.448a2.605,2.605,0,0,0-.538-1.253,3.5,3.5,0,0,0-6.384,1.978l.022,16.416c0,.932-.009,1.865,0,2.939a14.837,14.837,0,0,1-7.617.7,3.467,3.467,0,0,1-3.023-2.745,9.518,9.518,0,0,1-.253-2.21c-.027-1.992-.022-3.983-.018-5.976l0-4.322c0-1.658.052-3.146.047-4.8a3.491,3.491,0,0,0-6.951-.465l-.047.041.027.164c-.007.087-.027.17-.027.259,0,.063.015.123.019.187a.14.14,0,0,0,0,.054l0,.762c-.012,2.071-.016,4.142,0,6.209l.015,2.47c.009,2.437.017,4.956.144,7.445a9.507,9.507,0,0,0,8,9.354,22.963,22.963,0,0,0,4.413.431,25.105,25.105,0,0,0,9.505-1.943,4.225,4.225,0,0,0,2.745-4.167q-.019-6.548-.008-13.1v-7.594l0-.012c0-.033.009-.062.009-.094A3.476,3.476,0,0,0,127.622,140.448Z" transform="translate(33.004 -125.972)" fill="#37c7fc" fill-rule="evenodd"/>
          <path id="Path_457" data-name="Path 457" d="M150.188,149.474l-1.574-.218c-3.128-.436-4.523-1.407-4.523-3.15,0-1.916,1.454-3.06,3.892-3.06a11.883,11.883,0,0,1,5.059,1.21,4.392,4.392,0,0,0,1.939.5,2.867,2.867,0,0,0,2.931-2.932,3.057,3.057,0,0,0-1.592-2.692,17.389,17.389,0,0,0-8.379-1.99c-6.484,0-10.673,3.624-10.673,9.23,0,5.143,3.2,8.189,9.516,9.053l1.575.219c3.935.534,4.477,1.85,4.477,3.192,0,2.076-1.809,3.366-4.722,3.366a12.124,12.124,0,0,1-6.318-1.906,3.9,3.9,0,0,0-1.948-.544,2.966,2.966,0,0,0-3.019,2.976,3.347,3.347,0,0,0,1.591,2.822l0,0a17.94,17.94,0,0,0,9.429,2.556c7.284,0,11.81-3.638,11.81-9.492C159.663,153.3,156.652,150.391,150.188,149.474Z" transform="translate(28.117 -125.895)" fill="#37c7fc" fill-rule="evenodd"/>
          <path id="Path_458" data-name="Path 458" d="M80.522,137.673c-6.207,0-10.743,2.965-12.448,8.138a21.679,21.679,0,0,0-.9,6.979,21.185,21.185,0,0,0,.961,6.915v0c1.7,5.285,6.273,8.2,12.875,8.2a17.527,17.527,0,0,0,10.494-3.115A3.22,3.22,0,0,0,93.075,162a2.729,2.729,0,0,0-2.79-2.852,5.688,5.688,0,0,0-2.765.872,12.347,12.347,0,0,1-5.717,1.57c-3.253,0-5.589-1.483-6.408-4.07a5.566,5.566,0,0,1-.32-1.8.638.638,0,0,1,.687-.688H91.444a2.307,2.307,0,0,0,2.486-2.486,20.948,20.948,0,0,0-.962-6.8C91.273,140.541,86.852,137.673,80.522,137.673ZM85.464,150h-9.7a.638.638,0,0,1-.687-.687,7.293,7.293,0,0,1,.319-2.289,5.046,5.046,0,0,1,5.188-3.462c2.626,0,4.538,1.259,5.249,3.455a7.33,7.33,0,0,1,.322,2.3A.638.638,0,0,1,85.464,150Z" transform="translate(38.141 -125.972)" fill="#37c7fc" fill-rule="evenodd"/>
          <path id="Path_459" data-name="Path 459" d="M43.37,153.424a15.224,15.224,0,0,0-28.956-7.1,14.6,14.6,0,0,0-.029,13.067,15.286,15.286,0,0,0,16.768,8.4v0a3.517,3.517,0,1,0-1.4-6.892,8.462,8.462,0,0,1-5.976-1.085,7.176,7.176,0,0,1-3-3.346,8.6,8.6,0,0,1-.407-5.946,3.572,3.572,0,1,0,4.609-5.147,8.333,8.333,0,0,1,5.75-.281,7.257,7.257,0,0,1,3.472,2.426,8.265,8.265,0,0,1,2.146,5.692.611.611,0,0,0,.006.074c0,.05-.015.1-.015.147a3.508,3.508,0,0,0,7.008.258c0-.041.024-.058.027-.1s0-.1,0-.151v-.01Z" transform="translate(45.958 -125.972)" fill="#37c7fc" fill-rule="evenodd"/>
        </g>
      </g>
    </g>
  </g>
</svg>
