<svg xmlns="http://www.w3.org/2000/svg" xmlns:xlink="http://www.w3.org/1999/xlink" width="363" height="255" viewBox="0 0 363 255">
  <defs>
    <linearGradient id="linear-gradient" x1="0.078" x2="1" gradientUnits="objectBoundingBox">
      <stop offset="0" stop-color="#d0f2ff"/>
      <stop offset="1" stop-color="#f7fdff"/>
    </linearGradient>
    <clipPath id="clip-path">
      <rect id="Rectangle_138" data-name="Rectangle 138" width="178" height="133" transform="translate(0.444 -0.352)" fill="#ffeedb"/>
    </clipPath>
    <clipPath id="clip-path-2">
      <rect id="Rectangle_139" data-name="Rectangle 139" width="164" height="133" transform="translate(0.5 -0.352)" fill="#ffeedb"/>
    </clipPath>
  </defs>
  <g id="DNA" transform="translate(-970.095 -147)">
    <path id="Rectangle_137" data-name="Rectangle 137" d="M0,0H121a60,60,0,0,1,60,60V255a0,0,0,0,1,0,0H0a0,0,0,0,1,0,0V0A0,0,0,0,1,0,0Z" transform="translate(1152.095 147)" fill="url(#linear-gradient)"/>
    <path id="Rectangle_135" data-name="Rectangle 135" d="M0,0H182a0,0,0,0,1,0,0V255a0,0,0,0,1,0,0H60A60,60,0,0,1,0,195V0A0,0,0,0,1,0,0Z" transform="translate(970.095 147)" fill="#fff1e2"/>
    <g id="Mask_Group_31" data-name="Mask Group 31" transform="translate(972.651 208.352)" clip-path="url(#clip-path)">
      <path id="Path_673" data-name="Path 673" d="M237.072,97.209a90.9,90.9,0,0,0,25.907-3.781l.185-.051c.133-.032.267-.07.4-.116l.148-.048a90.425,90.425,0,0,0,20.561-9.224,4.592,4.592,0,0,0,1.533-6.313h0a4.593,4.593,0,0,0-6.312-1.533,81.419,81.419,0,0,1-13.712,6.672l-2.433.913-60.6-60.6.914-2.433a81.3,81.3,0,0,1,6.671-13.712,4.595,4.595,0,0,0-7.85-4.778,90.4,90.4,0,0,0-9.238,20.613l-.046.141c-.026.078-.053.154-.073.232l-.043.152a90.74,90.74,0,0,0-.962,48.6l1.7,6.618-6.617-1.706A90.6,90.6,0,0,0,76.861,187.2l1.705,6.617-6.617-1.7a90.769,90.769,0,0,0-48.615.964l-.118.033c-.094.025-.186.058-.279.088l-.1.032A90.5,90.5,0,0,0,2.207,202.48a4.593,4.593,0,1,0,4.777,7.847A81.45,81.45,0,0,1,20.7,203.654l2.433-.913,60.6,60.6-.911,2.432a81.1,81.1,0,0,1-6.673,13.713A4.595,4.595,0,0,0,84,284.269a90.424,90.424,0,0,0,9.239-20.615l.045-.137c.031-.089.059-.178.083-.269l.034-.119a90.769,90.769,0,0,0,.963-48.608l-1.7-6.62,6.618,1.707A90.594,90.594,0,0,0,209.619,99.274l-1.705-6.616,6.617,1.7A90.573,90.573,0,0,0,237.072,97.209ZM87.644,244.926l-.822,8.512L33.035,199.649l8.515-.82a81.083,81.083,0,0,1,30.779,2.914l9.581,2.819,2.819,9.581A81.024,81.024,0,0,1,87.644,244.926Zm42.049-42.019q-3.952.382-7.89.381A80.988,80.988,0,0,1,98.9,199.98h0l-9.581-2.819L86.5,187.578a81.06,81.06,0,0,1-2.929-30.8l.822-8.513,53.817,53.817Zm42.969-17.412a81.2,81.2,0,0,1-22.125,12.577l-2.435.915L87.486,138.373l.916-2.435a81.287,81.287,0,0,1,12.576-22.126l2.816-3.525,72.393,72.393Zm25.414-34.964A81.164,81.164,0,0,1,185.5,172.658l-2.816,3.524-72.39-72.392,3.525-2.816A81.212,81.212,0,0,1,135.943,88.4l2.434-.916L198.991,148.1Zm4.835-20.842-.821,8.514L148.27,84.38l8.515-.82a81.1,81.1,0,0,1,30.8,2.93l9.583,2.819,2.819,9.583A81.053,81.053,0,0,1,202.911,129.689Zm1.655-47.781-2.816-9.582a81.036,81.036,0,0,1-2.916-30.782l.82-8.515,53.792,53.789-8.513.822q-3.971.383-7.924.383a80.754,80.754,0,0,1-22.859-3.3Z" transform="translate(178.904 -133.462) rotate(45)" fill="#ffdeb9"/>
    </g>
    <g id="Mask_Group_32" data-name="Mask Group 32" transform="translate(1151.595 208.352)" clip-path="url(#clip-path-2)">
      <path id="Path_675" data-name="Path 675" d="M237.072,97.209a90.9,90.9,0,0,0,25.907-3.781l.185-.051c.133-.032.267-.07.4-.116l.148-.048a90.425,90.425,0,0,0,20.561-9.224,4.592,4.592,0,0,0,1.533-6.313h0a4.593,4.593,0,0,0-6.312-1.533,81.419,81.419,0,0,1-13.712,6.672l-2.433.913-60.6-60.6.914-2.433a81.3,81.3,0,0,1,6.671-13.712,4.595,4.595,0,0,0-7.85-4.778,90.4,90.4,0,0,0-9.238,20.613l-.046.141c-.026.078-.053.154-.073.232l-.043.152a90.74,90.74,0,0,0-.962,48.6l1.7,6.618-6.617-1.706A90.6,90.6,0,0,0,76.861,187.2l1.705,6.617-6.617-1.7a90.769,90.769,0,0,0-48.615.964l-.118.033c-.094.025-.186.058-.279.088l-.1.032A90.5,90.5,0,0,0,2.207,202.48a4.593,4.593,0,1,0,4.777,7.847A81.45,81.45,0,0,1,20.7,203.654l2.433-.913,60.6,60.6-.911,2.432a81.1,81.1,0,0,1-6.673,13.713A4.595,4.595,0,0,0,84,284.269a90.424,90.424,0,0,0,9.239-20.615l.045-.137c.031-.089.059-.178.083-.269l.034-.119a90.769,90.769,0,0,0,.963-48.608l-1.7-6.62,6.618,1.707A90.594,90.594,0,0,0,209.619,99.274l-1.705-6.616,6.617,1.7A90.573,90.573,0,0,0,237.072,97.209ZM87.644,244.926l-.822,8.512L33.035,199.649l8.515-.82a81.083,81.083,0,0,1,30.779,2.914l9.581,2.819,2.819,9.581A81.024,81.024,0,0,1,87.644,244.926Zm42.049-42.019q-3.952.382-7.89.381A80.988,80.988,0,0,1,98.9,199.98h0l-9.581-2.819L86.5,187.578a81.06,81.06,0,0,1-2.929-30.8l.822-8.513,53.817,53.817Zm42.969-17.412a81.2,81.2,0,0,1-22.125,12.577l-2.435.915L87.486,138.373l.916-2.435a81.287,81.287,0,0,1,12.576-22.126l2.816-3.525,72.393,72.393Zm25.414-34.964A81.164,81.164,0,0,1,185.5,172.658l-2.816,3.524-72.39-72.392,3.525-2.816A81.212,81.212,0,0,1,135.943,88.4l2.434-.916L198.991,148.1Zm4.835-20.842-.821,8.514L148.27,84.38l8.515-.82a81.1,81.1,0,0,1,30.8,2.93l9.583,2.819,2.819,9.583A81.053,81.053,0,0,1,202.911,129.689Zm1.655-47.781-2.816-9.582a81.036,81.036,0,0,1-2.916-30.782l.82-8.515,53.792,53.789-8.513.822q-3.971.383-7.924.383a80.754,80.754,0,0,1-22.859-3.3Z" transform="translate(-0.04 -133.462) rotate(45)" fill="#c2eeff"/>
    </g>
  </g>
</svg>
