<svg xmlns="http://www.w3.org/2000/svg" width="152.387" height="152.387" viewBox="0 0 152.387 152.387">
  <g id="Group_33" data-name="Group 33" transform="translate(-1120.413 -209.967)">
    <rect id="Rectangle_126" data-name="Rectangle 126" width="105.754" height="105.754" rx="32.215" transform="translate(1196.607 211.381) rotate(45)" fill="none" stroke="#ffbdd5" stroke-miterlimit="10" stroke-width="2"/>
    <rect id="Rectangle_127" data-name="Rectangle 127" width="89.241" height="89.241" rx="27.184" transform="translate(1190.768 228.896) rotate(45)" fill="#ffbdd5"/>
    <path id="Path_671" data-name="Path 671" d="M1175.66,326.2h64.914a1.033,1.033,0,0,0,1.033-1.031v-5.728a6.764,6.764,0,0,0-4.083-6.2l-.929-.4.531-.862a29.382,29.382,0,0,0-15.752-43.517l-.3-.1-.167-.268a10.58,10.58,0,0,0-7.1-4.856l-1.153-.208,2.31-4.621a1.029,1.029,0,0,0-.461-1.384l-.785-.392,2.491-4.983.784.389a1.039,1.039,0,0,0,1.389-.463l4.018-8.037a1.032,1.032,0,0,0-.461-1.385l-11.456-5.728a1.034,1.034,0,0,0-1.384.462l-4.02,8.039a1.033,1.033,0,0,0,.462,1.385l.785.392-2.492,4.984-.783-.39a1.036,1.036,0,0,0-1.387.46L1186.192,282.7a1.031,1.031,0,0,0,.462,1.384l11.455,5.728a1.061,1.061,0,0,0,1.384-.462l4.407-8.812.858.8a10.42,10.42,0,0,0,13.357.822l.427-.309.474.232a16,16,0,0,1,9.069,14.446,16.169,16.169,0,0,1-16.151,16.151h-16.151v-5.574h6.6a1.032,1.032,0,1,0,0-2.063H1175.66a1.032,1.032,0,1,0,0,2.063h6.6v5.574h-.877a6.767,6.767,0,0,0-6.759,6.76v5.728A1.032,1.032,0,0,0,1175.66,326.2Zm22.449-38.691L1188.5,282.7l14.549-29.1.783.388a1.035,1.035,0,0,0,1.388-.46l3.417-6.832a1.033,1.033,0,0,0-.463-1.384l-.785-.393,3.1-6.193,9.609,4.805-3.1,6.19-.783-.387a1.04,1.04,0,0,0-1.389.46l-3.414,6.831a1.031,1.031,0,0,0,.46,1.385l.786.392-2.382,4.763-.421.084a10.6,10.6,0,0,0-8.5,10.368,10.436,10.436,0,0,0,1.057,4.522l.186.385Zm13.826-5.375a8.514,8.514,0,1,1,8.515-8.515A8.525,8.525,0,0,1,1211.935,282.133Zm10.813,28.967A18.1,18.1,0,0,0,1221,280.773l-.821-.47.529-.783a10.505,10.505,0,0,0,1.8-5.9,5.355,5.355,0,0,0-.066-.727c-.025-.181-.042-.31-.056-.441l-.171-1.55,1.413.658a27.412,27.412,0,0,1,10.85,40.749l-.262.373h-13.6Zm-38.419-3.993h9.391v5.574h-9.391Zm-7.637,12.333a4.7,4.7,0,0,1,4.695-4.7h53.458a4.7,4.7,0,0,1,4.7,4.7v4.7h-62.85Z" transform="translate(-9.726 -4.592)" fill="#d66795"/>
  </g>
</svg>
